<svg width="20" height="20" viewBox="0 0 20 20" fill="none" xmlns="http://www.w3.org/2000/svg">
<path d="M10 16.4375C10.4142 16.4375 10.75 16.7733 10.75 17.1875V18.0625C10.75 18.4767 10.4142 18.8125 10 18.8125C9.58579 18.8125 9.25 18.4767 9.25 18.0625V17.1875C9.25 16.7733 9.58579 16.4375 10 16.4375ZM4.3877 14.5518C4.68061 14.2592 5.15545 14.259 5.44824 14.5518C5.74103 14.8446 5.74083 15.3194 5.44824 15.6123L4.8291 16.2314C4.5362 16.5242 4.06141 16.5243 3.76855 16.2314C3.4757 15.9386 3.47579 15.4638 3.76855 15.1709L4.3877 14.5518ZM14.5518 14.5518C14.8446 14.259 15.3194 14.2592 15.6123 14.5518L16.2314 15.1709C16.5242 15.4638 16.5243 15.9386 16.2314 16.2314C15.9386 16.5243 15.4638 16.5242 15.1709 16.2314L14.5518 15.6123C14.2592 15.3194 14.259 14.8446 14.5518 14.5518ZM10.2568 5.00684C12.8989 5.14053 15 7.32472 15 10L14.9932 10.2568C14.8595 12.8989 12.6753 15 10 15L9.74316 14.9932C7.18618 14.8638 5.13622 12.8138 5.00684 10.2568L5 10C5 7.23858 7.23858 5 10 5L10.2568 5.00684ZM10 6.5C8.067 6.5 6.5 8.067 6.5 10C6.5 11.933 8.06701 13.5 10 13.5C11.933 13.5 13.5 11.933 13.5 10C13.5 8.06701 11.933 6.5 10 6.5ZM2.8125 9.25C3.22671 9.25 3.5625 9.58579 3.5625 10C3.5625 10.4142 3.22671 10.75 2.8125 10.75H1.9375C1.52329 10.75 1.1875 10.4142 1.1875 10C1.1875 9.58579 1.52329 9.25 1.9375 9.25H2.8125ZM18.0625 9.25C18.4767 9.25 18.8125 9.58579 18.8125 10C18.8125 10.4142 18.4767 10.75 18.0625 10.75H17.1875C16.7733 10.75 16.4375 10.4142 16.4375 10C16.4375 9.58579 16.7733 9.25 17.1875 9.25H18.0625ZM3.76855 3.76855C4.06141 3.4757 4.5362 3.47578 4.8291 3.76855L5.44824 4.3877C5.74084 4.68061 5.74103 5.15545 5.44824 5.44824C5.15545 5.74103 4.68061 5.74084 4.3877 5.44824L3.76855 4.8291C3.47578 4.5362 3.4757 4.06141 3.76855 3.76855ZM15.1709 3.76855C15.4638 3.47579 15.9386 3.4757 16.2314 3.76855C16.5243 4.06141 16.5242 4.5362 16.2314 4.8291L15.6123 5.44824C15.3194 5.74084 14.8446 5.74103 14.5518 5.44824C14.259 5.15545 14.2592 4.68061 14.5518 4.3877L15.1709 3.76855ZM10 1.1875C10.4142 1.1875 10.75 1.52329 10.75 1.9375V2.8125C10.75 3.22671 10.4142 3.5625 10 3.5625C9.58579 3.5625 9.25 3.22671 9.25 2.8125V1.9375C9.25 1.52329 9.58579 1.1875 10 1.1875Z" fill="black"/>
</svg>
