<svg width="20" height="20" viewBox="0 0 20 20" fill="none" xmlns="http://www.w3.org/2000/svg">
<g clip-path="url(#clip0_3797_29600)">
<path d="M10 16.4375C10.4142 16.4375 10.75 16.7733 10.75 17.1875V19.0625C10.75 19.4767 10.4142 19.8125 10 19.8125C9.58579 19.8125 9.25 19.4767 9.25 19.0625V17.1875C9.25 16.7733 9.58579 16.4375 10 16.4375ZM4.3877 14.5518C4.6806 14.2591 5.15543 14.259 5.44824 14.5518C5.74105 14.8446 5.74087 15.3194 5.44824 15.6123L4.12207 16.9385C3.82917 17.2313 3.35439 17.2313 3.06152 16.9385C2.76869 16.6456 2.76873 16.1708 3.06152 15.8779L4.3877 14.5518ZM14.5518 14.5518C14.8445 14.259 15.3194 14.2592 15.6123 14.5518L16.9385 15.8779C17.2314 16.1708 17.2314 16.6456 16.9385 16.9385C16.6456 17.2313 16.1708 17.2313 15.8779 16.9385L14.5518 15.6123C14.2592 15.3194 14.259 14.8445 14.5518 14.5518ZM10.2568 5.00684C12.8989 5.14053 15 7.32472 15 10L14.9932 10.2568C14.8595 12.8989 12.6753 15 10 15L9.74316 14.9932C7.18618 14.8638 5.13622 12.8138 5.00684 10.2568L5 10C5 7.23858 7.23858 5 10 5L10.2568 5.00684ZM10 6.5C8.067 6.5 6.5 8.067 6.5 10C6.5 11.933 8.06701 13.5 10 13.5C11.933 13.5 13.5 11.933 13.5 10C13.5 8.06701 11.933 6.5 10 6.5ZM2.8125 9.25C3.22671 9.25 3.5625 9.58579 3.5625 10C3.5625 10.4142 3.22671 10.75 2.8125 10.75H0.9375C0.523287 10.75 0.187501 10.4142 0.1875 10C0.1875 9.58579 0.523286 9.25 0.9375 9.25H2.8125ZM19.0625 9.25C19.4767 9.25 19.8125 9.58579 19.8125 10C19.8125 10.4142 19.4767 10.75 19.0625 10.75H17.1875C16.7733 10.75 16.4375 10.4142 16.4375 10C16.4375 9.58579 16.7733 9.25 17.1875 9.25H19.0625ZM3.06152 3.06152C3.35439 2.76866 3.82917 2.76871 4.12207 3.06152L5.44824 4.3877C5.74087 4.68061 5.74105 5.15544 5.44824 5.44824C5.15543 5.74101 4.6806 5.74086 4.3877 5.44824L3.06152 4.12207C2.76873 3.82918 2.7687 3.35439 3.06152 3.06152ZM15.8779 3.06152C16.1708 2.76866 16.6456 2.76867 16.9385 3.06152C17.2314 3.35441 17.2314 3.82918 16.9385 4.12207L15.6123 5.44824C15.3194 5.7408 14.8445 5.74102 14.5518 5.44824C14.259 5.15546 14.2592 4.6806 14.5518 4.3877L15.8779 3.06152ZM10 0.1875C10.4142 0.187502 10.75 0.523288 10.75 0.9375V2.8125C10.75 3.22671 10.4142 3.5625 10 3.5625C9.58579 3.5625 9.25 3.22671 9.25 2.8125V0.9375C9.25 0.523287 9.58579 0.1875 10 0.1875Z" fill="black"/>
</g>
<defs>
<clipPath id="clip0_3797_29600">
<rect width="20" height="20" fill="white"/>
</clipPath>
</defs>
</svg>
