<svg width="20" height="20" viewBox="0 0 20 20" fill="none" xmlns="http://www.w3.org/2000/svg">
<path d="M15 12.25C15.4142 12.25 15.75 12.5858 15.75 13C15.75 13.4142 15.4142 13.75 15 13.75H5C4.58579 13.75 4.25 13.4142 4.25 13C4.25 12.5858 4.58579 12.25 5 12.25H15ZM10.2568 5.00684C12.6472 5.12779 14.5949 6.92709 14.9443 9.25H18C18.4142 9.25 18.75 9.58579 18.75 10C18.75 10.4142 18.4142 10.75 18 10.75H2C1.58579 10.75 1.25 10.4142 1.25 10C1.25 9.58579 1.58579 9.25 2 9.25H5.05566C5.41751 6.84435 7.49347 5 10 5L10.2568 5.00684ZM10 6.5C8.32455 6.5 6.92548 7.67756 6.58203 9.25H13.418C13.0745 7.67757 11.6754 6.5 10 6.5Z" fill="black"/>
</svg>
