<svg width="20" height="20" viewBox="0 0 20 20" fill="none" xmlns="http://www.w3.org/2000/svg">
<path d="M10 1.25C14.8325 1.25 18.75 5.16751 18.75 10C18.75 14.8325 14.8325 18.75 10 18.75C5.16751 18.75 1.25 14.8325 1.25 10C1.25 9.34049 2.30352 9.2626 2.72656 9.76855C3.64347 10.865 5.02128 11.5625 6.5625 11.5625C9.32392 11.5625 11.5625 9.32392 11.5625 6.5625C11.5625 5.11732 10.9491 3.81589 9.96875 2.90332L9.76855 2.72656C9.2626 2.30352 9.34049 1.25 10 1.25ZM12.0215 3.03809C12.6782 4.0532 13.0625 5.26276 13.0625 6.5625C13.0625 10.04 10.3316 12.8794 6.89746 13.0537L6.5625 13.0625C5.26276 13.0625 4.0532 12.6782 3.03809 12.0215C3.91347 15.0415 6.69775 17.25 10 17.25C13.8789 17.25 17.0461 14.2037 17.2402 10.373L17.25 10C17.25 6.69775 15.0415 3.91347 12.0215 3.03809Z" fill="black"/>
</svg>
