<svg width="20" height="20" viewBox="0 0 20 20" fill="none" xmlns="http://www.w3.org/2000/svg">
<path d="M15 12.25C15.4142 12.25 15.75 12.5858 15.75 13C15.75 13.4142 15.4142 13.75 15 13.75H5C4.58579 13.75 4.25 13.4142 4.25 13C4.25 12.5858 4.58579 12.25 5 12.25H15ZM10.2568 5.00684C12.6472 5.12779 14.5949 6.92709 14.9443 9.25H18C18.4142 9.25 18.75 9.58579 18.75 10C18.75 10.4142 18.4142 10.75 18 10.75H2C1.58579 10.75 1.25 10.4142 1.25 10C1.25 9.58579 1.58579 9.25 2 9.25H5.05566C5.41751 6.84435 7.49347 5 10 5L10.2568 5.00684ZM10 6.5C8.32455 6.5 6.92548 7.67756 6.58203 9.25H13.418C13.0745 7.67757 11.6754 6.5 10 6.5ZM3.06152 3.06152C3.35439 2.76866 3.82917 2.76871 4.12207 3.06152L5.44824 4.3877C5.74087 4.68061 5.74105 5.15544 5.44824 5.44824C5.15543 5.74101 4.6806 5.74086 4.3877 5.44824L3.06152 4.12207C2.76873 3.82918 2.7687 3.35439 3.06152 3.06152ZM15.8779 3.06152C16.1708 2.76866 16.6456 2.76867 16.9385 3.06152C17.2314 3.35441 17.2314 3.82918 16.9385 4.12207L15.6123 5.44824C15.3194 5.7408 14.8445 5.74102 14.5518 5.44824C14.259 5.15546 14.2592 4.6806 14.5518 4.3877L15.8779 3.06152ZM10 0.1875C10.4142 0.187502 10.75 0.523288 10.75 0.9375V2.8125C10.75 3.22671 10.4142 3.5625 10 3.5625C9.58579 3.5625 9.25 3.22671 9.25 2.8125V0.9375C9.25 0.523287 9.58579 0.1875 10 0.1875Z" fill="black"/>
</svg>
