<svg width="256" height="256" viewBox="0 0 256 256" fill="none" xmlns="http://www.w3.org/2000/svg">
<path d="M190.686 114.215C190.764 104.298 187.622 95.5679 181.887 87.6535C176.239 79.8641 169.173 73.5413 161.305 68.0911C151.061 60.9951 139.753 55.8132 128.714 50.152C128.267 49.9214 127.477 49.9636 127.019 50.2078C119.177 54.3663 111.268 58.4132 103.563 62.8158C93.2795 68.691 84.0612 75.9498 76.6653 85.2992C70.1992 93.4729 65.9775 102.51 66.0001 113.23C66.0634 142.533 66.0227 171.838 66.0257 201.142C66.0257 201.811 66.0046 202.485 66.0679 203.148C66.2232 204.78 66.8984 205.513 68.5368 205.523C74.6983 205.567 80.8599 205.542 87.1978 205.542C87.1978 204.408 87.1978 203.457 87.1978 202.504C87.2008 180.466 87.2083 158.429 87.2083 136.391C88.4955 134.767 90.0027 133.312 91.6275 131.954C96.7823 127.646 102.876 124.954 108.858 122.082C109.142 121.946 109.637 122.073 109.962 122.226C111.645 123.03 113.306 123.88 114.975 124.718C119.162 126.817 123.346 128.921 127.007 131.901C132.712 136.544 135.842 142.253 135.749 149.896C135.53 168.024 135.675 186.154 135.675 204.283C135.675 204.544 135.711 204.808 135.732 205.097C136.012 205.114 136.222 205.135 136.433 205.135C139.986 205.132 143.538 205.135 147.089 205.118C148.972 205.109 149.335 204.744 149.336 202.842C149.342 195.861 149.333 188.878 149.333 181.895C149.336 170.135 149.281 158.376 149.374 146.616C149.424 140.262 147.41 134.67 143.736 129.601C140.118 124.611 135.59 120.561 130.55 117.069C123.988 112.523 116.743 109.204 109.672 105.577C109.386 105.43 108.879 105.457 108.585 105.612C103.562 108.275 98.496 110.868 93.5598 113.689C91.3593 114.946 89.2356 116.304 87.2053 117.775C87.2053 117.001 87.2053 116.226 87.2053 115.451C87.2038 112.346 87.8158 109.385 88.907 106.5C91.2613 100.269 95.5463 95.5046 100.55 91.3206C108.597 84.5953 118.11 80.3946 127.445 75.9121C127.889 75.6996 128.662 75.8971 129.168 76.1397C131.795 77.3937 134.388 78.7216 136.992 80.0269C143.528 83.3051 150.058 86.5879 155.774 91.2392C164.677 98.4859 169.563 107.398 169.42 119.328C169.078 147.623 169.304 175.926 169.306 204.226C169.306 204.634 169.361 205.044 169.396 205.496C169.833 205.522 170.16 205.555 170.49 205.555C176.036 205.551 181.582 205.557 187.126 205.53C190.065 205.516 190.63 204.945 190.633 201.977C190.642 191.078 190.627 180.179 190.629 169.281C190.627 150.929 190.54 132.57 190.686 114.215Z" fill="white"/>
</svg>
