<svg width="24" height="24" viewBox="0 0 24 24" fill="none" xmlns="http://www.w3.org/2000/svg">
<g clip-path="url(#clip0_1013_2924)">
<path d="M12 23.25C18.2132 23.25 23.25 18.2132 23.25 12C23.25 5.7868 18.2132 0.75 12 0.75C5.7868 0.75 0.75 5.7868 0.75 12C0.75 18.2132 5.7868 23.25 12 23.25Z" fill="white"/>
<path d="M8.77514 12.6375C9.82514 13.35 11.2876 13.05 12.0001 12C12.7126 10.95 14.1376 10.65 15.2251 11.3625C16.2376 12.0375 16.5376 13.35 15.9751 14.3625C17.2126 12.2625 16.6501 9.525 14.5501 8.1375C12.4126 6.7125 9.52514 7.275 8.10014 9.4125C8.06264 9.4875 8.02514 9.5625 7.98764 9.6C7.46264 10.6875 7.80014 11.9625 8.77514 12.6375Z" fill="#ED4C5C"/>
<path d="M15.2252 11.3627C14.1752 10.6502 12.7127 10.9502 12.0002 12.0002C11.2877 13.0502 9.86267 13.3502 8.77517 12.6377C7.76267 11.9627 7.46267 10.6502 8.02517 9.6377C6.75017 11.7377 7.35017 14.4752 9.45017 15.8627C11.5877 17.2877 14.4752 16.7252 15.9002 14.5877C15.9377 14.5127 15.9752 14.4377 16.0127 14.4002C16.5377 13.3127 16.2002 12.0377 15.2252 11.3627Z" fill="#428BC1"/>
<path d="M2.9249 8.7376L5.5124 4.8751L5.2499 4.6876L4.9874 4.5376L2.3999 8.4001L2.6624 8.5501L2.9249 8.7376ZM3.6374 9.2251L3.8999 9.3751L6.4499 5.5126L6.2249 5.3626L5.9624 5.1751L3.3749 9.0376L3.6374 9.2251ZM6.8999 5.8126L4.3499 9.6751L4.6124 9.8626L4.8749 10.0126L7.4249 6.1501L7.1624 6.0001L6.8999 5.8126ZM18.1874 15.9376L18.4499 16.1251L19.6499 14.3251L19.3874 14.1376L19.1249 13.9876L17.9249 15.7876L18.1874 15.9376ZM21.0749 15.2626L19.8749 17.0626L20.1374 17.2501L20.3999 17.4001L21.5999 15.6001L21.3374 15.4501L21.0749 15.2626ZM19.4249 16.7626L20.6249 14.9626L20.3624 14.7751L20.0999 14.6251L18.8999 16.4251L19.1624 16.5751L19.4249 16.7626ZM18.0374 16.2001L17.7749 16.0501L16.5749 17.8501L16.8374 18.0001L17.0999 18.1876L18.2999 16.3876L18.0374 16.2001ZM18.9749 16.8376L18.7499 16.6876L17.5499 18.4876L17.7749 18.6376L18.0374 18.8251L19.2374 17.0251L18.9749 16.8376ZM19.6874 17.3251L18.4874 19.1251L18.7499 19.3126L19.0124 19.4626L20.2124 17.6626L19.9499 17.4751L19.6874 17.3251ZM2.6624 15.4501L2.3999 15.6001L4.9874 19.4626L5.2499 19.3126L5.5124 19.1251L2.9249 15.2626L2.6624 15.4501ZM5.0249 16.8376L4.7624 17.0251L5.9624 18.8251L6.2249 18.6376L6.4499 18.4876L5.2499 16.6876L5.0249 16.8376ZM4.6124 14.1376L4.3499 14.3251L6.8999 18.1876L7.1624 18.0001L7.4249 17.8501L4.8749 13.9876L4.6124 14.1376ZM3.3749 14.9626L4.5749 16.7626L4.8374 16.5751L5.0999 16.4251L3.8999 14.6251L3.6374 14.7751L3.3749 14.9626ZM19.9499 6.5251L20.2124 6.3376L19.0124 4.5376L18.7499 4.6876L18.4874 4.8751L19.6874 6.6751L19.9499 6.5251ZM18.0374 7.8001L18.2999 7.6126L17.0999 5.8126L16.8374 6.0001L16.5749 6.1501L17.7749 7.9501L18.0374 7.8001ZM19.8749 6.9376L21.0749 8.7376L21.3374 8.5501L21.5999 8.4001L20.3999 6.6001L20.1374 6.7501L19.8749 6.9376ZM20.3624 9.2251L20.6249 9.0376L18.0374 5.1751L17.7749 5.3626L17.5499 5.5126L20.0999 9.3751L20.3624 9.2251ZM19.3874 9.8626L19.6499 9.6751L18.4499 7.8751L18.1874 8.0626L17.9249 8.2126L19.1249 10.0126L19.3874 9.8626Z" fill="#3E4347"/>
</g>
<defs>
<clipPath id="clip0_1013_2924">
<rect width="24" height="24" fill="white"/>
</clipPath>
</defs>
</svg>
