<svg width="24" height="24" viewBox="0 0 24 24" fill="none" xmlns="http://www.w3.org/2000/svg">
<g clip-path="url(#clip0_1013_2921)">
<path d="M12 23.25C18.2132 23.25 23.25 18.2132 23.25 12C23.25 5.7868 18.2132 0.75 12 0.75C5.7868 0.75 0.75 5.7868 0.75 12C0.75 18.2132 5.7868 23.25 12 23.25Z" fill="#00AFCA"/>
<path d="M21.2625 12.4127C21 12.2627 20.7 12.4502 20.7 12.7127C20.5875 14.5502 17.3625 15.0377 15.825 15.0377C14.2875 15.0752 10.9875 14.5127 10.875 12.7127C10.875 12.4502 10.575 12.3002 10.3125 12.4127C9.52502 12.8252 9.26252 13.6127 9.45002 14.4002C9.78752 15.8252 11.55 16.8377 13.05 17.2877C12.9375 17.5502 12.9 17.8127 12.8625 18.0752C12.825 18.3752 13.275 18.4877 13.5 18.3002C14.3625 17.6627 15.7125 17.4002 16.8375 17.4002C17.325 17.4002 17.325 16.7252 16.8375 16.7252C15.825 16.7252 14.7375 16.9127 13.8375 17.3252C14.175 16.5377 14.9625 15.7502 15.825 15.7127H15.8625C17.6625 15.7502 20.55 15.1127 21.3 13.4252C21.4125 13.7252 21.4125 14.0627 21.3 14.3627C20.925 15.5627 19.6125 16.0502 18.375 16.3877C17.925 16.5002 18.1125 17.1752 18.5625 17.0252C20.1375 16.6127 21.375 15.9752 22.0125 14.5502C22.3125 13.8002 22.0125 12.9002 21.2625 12.4127ZM13.35 16.6502C12.1125 16.3127 11.175 15.7127 10.425 14.7377C10.125 14.3252 10.0125 13.7627 10.275 13.3502C10.8375 14.6627 12.675 15.3377 14.325 15.5627C13.95 15.8627 13.6125 16.2377 13.35 16.6502Z" fill="#FFE62E"/>
<path d="M15.7498 13.0128C17.3445 13.0128 18.6373 11.72 18.6373 10.1253C18.6373 8.53057 17.3445 7.23779 15.7498 7.23779C14.1551 7.23779 12.8623 8.53057 12.8623 10.1253C12.8623 11.72 14.1551 13.0128 15.7498 13.0128Z" fill="#FFE62E"/>
<path d="M15.7499 6.8626C15.9374 6.8626 15.9749 6.7501 15.9749 6.6376C15.9749 6.4501 15.7499 5.6626 15.7499 5.6626C15.7499 5.6626 15.5249 6.4876 15.5249 6.6376C15.5249 6.7501 15.5624 6.8626 15.7499 6.8626Z" fill="#FFE62E"/>
<path d="M16.9877 7.08731C17.1377 7.1623 17.2502 7.08731 17.2877 6.97481C17.3627 6.82481 17.4377 5.9623 17.4377 5.9623C17.4377 5.9623 16.9127 6.63731 16.8377 6.7873C16.8377 6.89981 16.8377 7.0498 16.9877 7.08731ZM18.7877 11.3623C18.7127 11.5123 18.7877 11.6248 18.9002 11.6623C19.0502 11.7373 19.9127 11.8123 19.9127 11.8123C19.9127 11.8123 19.2377 11.2873 19.0877 11.2123C18.9752 11.2123 18.8252 11.2123 18.7877 11.3623ZM14.5127 13.1623C14.3627 13.0873 14.2502 13.1623 14.2127 13.2748C14.1377 13.4248 14.0627 14.2873 14.0627 14.2873C14.0627 14.2873 14.5877 13.6123 14.6627 13.4623C14.6627 13.3498 14.6627 13.1998 14.5127 13.1623ZM12.7127 8.88731C12.7877 8.73731 12.7127 8.6248 12.6002 8.5873C12.4502 8.5123 11.5877 8.43731 11.5877 8.43731C11.5877 8.43731 12.2627 8.96231 12.4127 9.0373C12.5252 9.0373 12.6752 9.03731 12.7127 8.88731ZM18.0752 7.7998C18.1877 7.9123 18.3377 7.8748 18.4127 7.7998C18.5252 7.6873 18.9377 6.9373 18.9377 6.9373C18.9377 6.9373 18.1877 7.3498 18.0752 7.46231C17.9627 7.5748 17.9627 7.6873 18.0752 7.7998ZM18.0752 12.4498C17.9627 12.5623 18.0002 12.6748 18.0752 12.7873C18.1877 12.8998 18.9377 13.3123 18.9377 13.3123C18.9377 13.3123 18.5252 12.5623 18.4127 12.4498C18.3002 12.3373 18.1877 12.3373 18.0752 12.4498ZM13.4252 12.4498C13.3127 12.3373 13.1627 12.3748 13.0877 12.4498C12.9752 12.5623 12.5627 13.3123 12.5627 13.3123C12.5627 13.3123 13.3127 12.8998 13.4252 12.7873C13.5377 12.6748 13.5377 12.5623 13.4252 12.4498ZM13.4252 7.7998C13.5377 7.6873 13.5002 7.5373 13.4252 7.46231C13.3127 7.3498 12.5627 6.9373 12.5627 6.9373C12.5627 6.9373 12.9752 7.6873 13.0877 7.7998C13.2002 7.9123 13.3127 7.9123 13.4252 7.7998ZM18.7877 8.88731C18.8627 9.03731 18.9752 9.07481 19.0877 8.99981C19.2377 8.92481 19.9127 8.3998 19.9127 8.3998C19.9127 8.3998 19.0502 8.51231 18.9002 8.54981C18.7877 8.6248 18.7127 8.69981 18.7877 8.88731ZM16.9877 13.1623C16.8377 13.2373 16.8002 13.3498 16.8752 13.4623C16.9502 13.6123 17.4752 14.2873 17.4752 14.2873C17.4752 14.2873 17.3627 13.4248 17.3252 13.2748C17.2502 13.1623 17.1752 13.0873 16.9877 13.1623ZM12.7127 11.3623C12.6377 11.2123 12.5252 11.1748 12.4127 11.2498C12.2627 11.3248 11.5877 11.8498 11.5877 11.8498C11.5877 11.8498 12.4502 11.7373 12.6002 11.6998C12.7127 11.6248 12.7877 11.5498 12.7127 11.3623ZM14.5127 7.08731C14.6627 7.0123 14.7002 6.89981 14.6252 6.7873C14.5502 6.63731 14.0252 5.9623 14.0252 5.9623C14.0252 5.9623 14.1377 6.7873 14.1752 6.97481C14.2502 7.08731 14.3252 7.1623 14.5127 7.08731ZM16.3877 6.89981C16.5377 6.9373 16.6502 6.8248 16.6502 6.7123C16.6877 6.5623 16.6127 5.6998 16.6127 5.6998C16.6127 5.6998 16.2377 6.44981 16.2002 6.63731C16.1627 6.74981 16.2377 6.8623 16.3877 6.89981ZM18.9752 10.7623C18.9377 10.9123 19.0502 11.0248 19.1627 11.0248C19.3127 11.0623 20.1752 10.9873 20.1752 10.9873C20.1752 10.9873 19.4252 10.6123 19.2377 10.5748C19.1252 10.5373 19.0127 10.6123 18.9752 10.7623ZM15.1127 13.3498C14.9627 13.3123 14.8502 13.4248 14.8502 13.5373C14.8127 13.6873 14.8877 14.5498 14.8877 14.5498C14.8877 14.5498 15.2627 13.7998 15.3002 13.6123C15.3377 13.4998 15.2627 13.3873 15.1127 13.3498ZM12.5252 9.48731C12.5627 9.29981 12.4502 9.2248 12.3377 9.2248C12.1877 9.1873 11.3252 9.26231 11.3252 9.26231C11.3252 9.26231 12.0752 9.63731 12.2627 9.67481C12.3752 9.71231 12.4877 9.63731 12.5252 9.48731ZM17.5877 7.38731C17.7377 7.46231 17.8502 7.42481 17.9252 7.3123C18.0377 7.1623 18.2627 6.3748 18.2627 6.3748C18.2627 6.3748 17.6252 6.9373 17.5127 7.0498C17.4377 7.1623 17.4377 7.31231 17.5877 7.38731ZM18.4877 11.9623C18.4127 12.1123 18.4502 12.2248 18.5627 12.2998C18.7127 12.4123 19.5002 12.6373 19.5002 12.6373C19.5002 12.6373 18.9377 11.9998 18.8252 11.8873C18.7127 11.8123 18.5627 11.8123 18.4877 11.9623ZM13.9127 12.8623C13.7627 12.7873 13.6502 12.8248 13.5752 12.9373C13.5002 13.0498 13.2377 13.8748 13.2377 13.8748C13.2377 13.8748 13.8752 13.3123 13.9877 13.1998C14.0627 13.0873 14.0627 12.9373 13.9127 12.8623ZM13.0127 8.28731C13.0877 8.13731 13.0502 8.02481 12.9377 7.94981C12.8252 7.87481 12.0002 7.6123 12.0002 7.6123C12.0002 7.6123 12.5627 8.2498 12.6752 8.3623C12.7877 8.4373 12.9377 8.43731 13.0127 8.28731ZM18.4877 8.28731C18.6002 8.43731 18.7127 8.4373 18.8252 8.3623C18.9752 8.2498 19.5002 7.6123 19.5002 7.6123C19.5002 7.6123 18.6752 7.87481 18.5627 7.94981C18.4502 8.06231 18.3752 8.17481 18.4877 8.28731ZM17.5877 12.8623C17.4377 12.9748 17.4377 13.0873 17.5127 13.1998C17.6252 13.3498 18.2627 13.8748 18.2627 13.8748C18.2627 13.8748 18.0002 13.0498 17.9252 12.9373C17.8127 12.8248 17.7002 12.7498 17.5877 12.8623ZM13.0127 11.9623C12.9002 11.8123 12.7877 11.8123 12.6752 11.8873C12.5252 11.9998 12.0002 12.6373 12.0002 12.6373C12.0002 12.6373 12.8252 12.3748 12.9377 12.2998C13.0502 12.1873 13.1252 12.0748 13.0127 11.9623ZM13.9127 7.38731C14.0627 7.27481 14.0627 7.1623 13.9877 7.0498C13.8752 6.8998 13.2377 6.3748 13.2377 6.3748C13.2377 6.3748 13.5002 7.1998 13.5752 7.3123C13.6877 7.42481 13.8002 7.49981 13.9127 7.38731ZM18.9752 9.48731C19.0127 9.63731 19.1252 9.71231 19.2377 9.67481C19.3877 9.63731 20.1752 9.26231 20.1752 9.26231C20.1752 9.26231 19.3127 9.1873 19.1627 9.2248C19.0127 9.2248 18.9377 9.29981 18.9752 9.48731ZM16.3877 13.3498C16.2377 13.3873 16.1627 13.4998 16.2002 13.6123C16.2377 13.7623 16.6127 14.5498 16.6127 14.5498C16.6127 14.5498 16.6877 13.6873 16.6502 13.5373C16.6502 13.3873 16.5752 13.3123 16.3877 13.3498ZM12.5252 10.7623C12.4877 10.6123 12.3752 10.5373 12.2627 10.5748C12.1127 10.6123 11.3252 10.9873 11.3252 10.9873C11.3252 10.9873 12.1877 11.0623 12.3377 11.0248C12.4877 11.0248 12.5627 10.9498 12.5252 10.7623ZM15.1127 6.89981C15.2627 6.8623 15.3377 6.74981 15.3002 6.63731C15.2627 6.48731 14.8877 5.6998 14.8877 5.6998C14.8877 5.6998 14.8127 6.5623 14.8502 6.7123C14.8502 6.8623 14.9252 6.9373 15.1127 6.89981ZM6.1877 19.3498H5.77519V20.7373H4.9502C5.3627 21.0748 5.7752 21.3373 6.2252 21.6373V19.3498H6.1877ZM5.77519 3.2623V4.6498H6.1877V2.3623C5.7377 2.6248 5.3252 2.9248 4.9127 3.2623H5.77519ZM4.8377 3.2998C4.7252 3.3748 4.6127 3.4873 4.5002 3.5998L5.6252 6.03731H4.6877V4.6498H4.2752V6.03731H3.3377L4.4252 3.6748C4.1252 3.9373 3.8252 4.2373 3.5627 4.5748L2.7002 6.4123L4.1627 9.56231H3.2252V8.1748H2.8127V11.8498H3.2252V10.3123H4.2002L3.6377 11.9998L4.2002 13.6498H3.2252V12.1123H2.8127V15.7873H3.2252V14.3998H4.1627L2.7002 17.5498L3.5627 19.3873C3.8252 19.6873 4.1252 19.9873 4.4252 20.2873L3.3377 17.9248H4.2752V19.3123H4.6877V17.9248H5.6252L4.5002 20.3623C4.6127 20.4748 4.7252 20.5498 4.8377 20.6623L6.2627 17.5498L4.8002 14.3998H5.7377V15.7873H6.15019V12.1123H5.7377V13.6498H4.7627L5.3252 11.9998L4.7627 10.3498H5.7377V11.8873H6.15019V8.21231H5.7377V9.5998H4.8002L6.2627 6.44981L4.8377 3.2998ZM5.6627 17.2123H4.7252V15.8248H4.3127V17.2123H3.3377L4.5002 14.7373L5.6627 17.2123ZM4.5002 13.1998L4.2002 12.3373H4.8002L4.5002 13.1998ZM4.8002 11.6623H4.2002L4.5002 10.7998L4.8002 11.6623ZM4.5002 9.29981L3.3377 6.82481H4.2752V8.21231H4.6877V6.82481H5.6252L4.5002 9.29981Z" fill="#FFE62E"/>
</g>
<defs>
<clipPath id="clip0_1013_2921">
<rect width="24" height="24" fill="white"/>
</clipPath>
</defs>
</svg>
