<svg width="24" height="24" viewBox="0 0 24 24" fill="none" xmlns="http://www.w3.org/2000/svg">
    <path
        d="M16.9107 12.0628C16.936 14.7868 19.3003 15.6933 19.3265 15.7048C19.3065 15.7687 18.9487 16.9966 18.0809 18.2649C17.3306 19.3615 16.552 20.4539 15.3254 20.4766C14.1202 20.4988 13.7326 19.7619 12.3547 19.7619C10.9771 19.7619 10.5465 20.454 9.40564 20.4988C8.22167 20.5436 7.32005 19.3131 6.56362 18.2206C5.01787 15.9858 3.83659 11.9057 5.42274 9.15155C6.21071 7.78383 7.61886 6.91773 9.14729 6.89552C10.3099 6.87334 11.4073 7.6777 12.118 7.6777C12.8283 7.6777 14.1619 6.71039 15.5638 6.85245C16.1507 6.87688 17.7981 7.08952 18.8559 8.63794C18.7707 8.69078 16.8902 9.78549 16.9107 12.0628ZM14.6456 5.37397C15.2741 4.6131 15.6972 3.5539 15.5818 2.5C14.6757 2.53642 13.5801 3.10377 12.9302 3.86422C12.3478 4.53763 11.8377 5.61548 11.9754 6.64852C12.9853 6.72665 14.0169 6.13532 14.6456 5.37397Z"
        fill="black" />
</svg>
