<svg width="16" height="21" viewBox="0 0 16 21" fill="none" xmlns="http://www.w3.org/2000/svg">
<path d="M5.85742 12.1426V13.5713H4.42871V12.1426H5.85742Z" fill="black"/>
<path d="M5.85742 6.42871V7.85742H4.42871V6.42871H5.85742Z" fill="black"/>
<path d="M11.5713 6.42871V7.85742H10.1426V6.42871H11.5713Z" fill="black"/>
<path fill-rule="evenodd" clip-rule="evenodd" d="M15 0C15.5523 0 16 0.44772 16 1V20.8008C16 20.8569 15.974 20.9098 15.9297 20.9443C15.8386 21.0151 15.6682 21.0151 15.5771 20.9443C14.4722 20.0866 13.4792 19.3253 11.8652 19.3281C10.2544 19.331 9.28568 20.0836 8.18066 20.9414L8.17578 20.9443C8.08466 21.0151 7.91431 21.0151 7.82324 20.9443C6.70534 20.0765 5.69809 19.3106 4.06348 19.3291C2.48156 19.3471 1.5093 20.1016 0.423828 20.9443C0.332708 21.0151 0.161433 21.0151 0.0703125 20.9443C0.0260263 20.9098 0 20.857 0 20.8008V1C0 0.44772 0.44772 0 1 0H15ZM3 10.7139V14.4443C3.00017 14.7509 3.24909 14.9998 3.55566 15H7.28613V10.7139H3ZM10.7773 11.8252V12.9365H8.71387V15H9.8252V14.0479H10.7773V15H12.4443C12.7509 14.9998 12.9998 14.7509 13 14.4443V12.9365H11.8887V14.0479H10.7773V12.9365H11.8887V11.8252H10.7773ZM8.71387 10.7139V11.8252H10.7773V10.7139H8.71387ZM11.8887 10.7139V11.8252H13V10.7139H11.8887ZM3.55566 5C3.24908 5.00017 3.00017 5.24908 3 5.55566V9.28613H7.28613V5H3.55566ZM8.71387 5V9.28613H13V5.55566C12.9998 5.24907 12.7509 5.00015 12.4443 5H8.71387Z" fill="black"/>
</svg>
