<svg width="24" height="24" viewBox="0 0 24 24" fill="none" xmlns="http://www.w3.org/2000/svg">

        <path
            d="M11.5693 20.4873C16.2979 20.4873 19.4619 17.2969 19.4619 12.498C19.4619 4.55273 12.668 1.23047 7.97461 1.23047C7.07812 1.23047 6.48926 1.56445 6.48926 2.20605C6.48926 2.45215 6.60352 2.71582 6.79688 2.94434C7.87793 4.24512 8.88867 5.66895 8.89746 7.35645C8.89746 7.53223 8.88867 7.69043 8.85352 7.86621C8.33496 6.78516 7.47363 6.15234 6.69141 6.15234C6.27832 6.15234 5.99707 6.44238 5.99707 6.89941C5.99707 7.16309 6.05859 7.65527 6.05859 8.08594C6.05859 10.0986 4.5293 11.1445 4.5293 14.3789C4.5293 18.0439 7.33301 20.4873 11.5693 20.4873ZM11.7803 17.7803C10.1455 17.7803 9.06445 16.8047 9.06445 15.3369C9.06445 13.8076 10.1367 13.2979 10.2773 12.2432C10.2949 12.1377 10.374 12.0938 10.4707 12.1729C10.8574 12.5244 11.1123 12.9639 11.3232 13.4912C11.7715 12.8145 11.9473 11.54 11.7891 10.1689C11.7715 10.0547 11.8594 9.99316 11.9648 10.0371C13.8633 10.9072 14.8828 12.7881 14.8828 14.5459C14.8828 16.3037 13.8281 17.7803 11.7803 17.7803Z"
            fill="url(#paint0_linear_1558_1680)" />

    <defs>
        <linearGradient id="paint0_linear_1558_1680" x1="-1.2089" y1="-0.285418" x2="15.0877"
            y2="25.231" gradientUnits="userSpaceOnUse">
            <stop offset="0.543805" />
            <stop offset="1" stop-opacity="0.6" />
        </linearGradient>
    </defs>
</svg>
