<svg width="24" height="24" viewBox="0 0 24 24" fill="none" xmlns="http://www.w3.org/2000/svg">
<path d="M12.1837 10.3638V13.8493H17.1262C16.9091 14.9702 16.2578 15.9193 15.281 16.5575L18.2616 18.8239C19.9981 17.253 21 14.9457 21 12.2048C21 11.5666 20.9416 10.9529 20.833 10.3639L12.1837 10.3638Z" fill="#4285F4"/>
<path d="M3.98527 7.96655C3.35915 9.17742 3.00018 10.5438 3.00018 12.0002C3.00018 13.4565 3.35915 14.8229 3.98527 16.0338C3.98527 16.0419 7.041 13.7101 7.041 13.7101C6.85733 13.1701 6.74876 12.5974 6.74876 12.0001C6.74876 11.4027 6.85733 10.83 7.041 10.29L3.98527 7.96655Z" fill="#FBBC05"/>
<path d="M12.1836 6.58365C13.5361 6.58365 14.7383 7.04183 15.6985 7.92548L18.3283 5.34823C16.7337 3.89188 14.6632 3 12.1836 3C8.59362 3 5.49624 5.02092 3.98511 7.9664L7.04074 10.2901C7.76705 8.16274 9.79584 6.58365 12.1836 6.58365Z" fill="#EA4335"/>
<path d="M7.03679 13.7131L6.36457 14.2174L3.98511 16.0338C5.49624 18.971 8.59343 21.0002 12.1834 21.0002C14.663 21.0002 16.7418 20.1983 18.2613 18.8238L15.2808 16.5574C14.4626 17.0974 13.419 17.4247 12.1834 17.4247C9.79565 17.4247 7.76694 15.8456 7.04054 13.7183L7.03679 13.7131Z" fill="#34A853"/>
</svg>
