<svg width="24" height="24" viewBox="0 0 24 24" fill="none" xmlns="http://www.w3.org/2000/svg">
    <path fill-rule="evenodd" clip-rule="evenodd"
        d="M15.8885 3.86887C17.06 2.69731 18.96 2.69732 20.1316 3.86887C21.3028 5.04043 21.303 6.93959 20.1316 8.11106L10.3933 17.8484C9.71103 18.5306 8.87414 19.0389 7.95388 19.3288L4.07693 20.5505C3.69149 20.6717 3.32804 20.309 3.449 19.9236L4.67068 16.0456C4.96062 15.1254 5.46894 14.2885 6.15115 13.6062L15.8885 3.86887ZM18.8943 5.1052C18.4061 4.61715 17.6139 4.61709 17.1258 5.1052L16.0652 6.16575C15.5775 6.65383 15.5775 7.44528 16.0652 7.93333C16.5533 8.42131 17.3456 8.42117 17.8338 7.93333L18.8943 6.87278C19.3821 6.38466 19.3822 5.59328 18.8943 5.1052Z"
        fill="black" />
</svg>
