<svg width="25" height="24" viewBox="0 0 25 24" fill="none" xmlns="http://www.w3.org/2000/svg">

        <path fill-rule="evenodd" clip-rule="evenodd"
            d="M20.0171 20.837H4.9734C3.48725 20.837 2.52844 19.7344 2.52844 18.3825C2.52844 17.9798 2.6435 17.5771 2.85444 17.184L10.3811 3.72235C10.8413 2.88818 11.6755 2.46631 12.5 2.46631C13.3246 2.46631 14.1492 2.88818 14.6094 3.72235L22.1456 17.184C22.3566 17.5675 22.462 17.9798 22.462 18.3825C22.462 19.7344 21.5032 20.837 20.0171 20.837ZM11.5034 13.3282C11.5243 13.9558 11.8799 14.3009 12.497 14.3009C13.0932 14.3009 13.4384 13.9662 13.4593 13.3177L13.6267 8.10878C13.6476 7.46028 13.156 7.00005 12.4866 7.00005C11.7962 7.00005 11.336 7.46028 11.3569 8.09832L11.5034 13.3282ZM11.2 16.7067C11.2 17.397 11.7858 17.9095 12.497 17.9095C13.1978 17.9095 13.7836 17.4075 13.7836 16.7067C13.7836 16.0163 13.2083 15.5038 12.497 15.5038C11.7753 15.5038 11.2 16.0268 11.2 16.7067Z"
            fill="url(#paint0_linear_2215_5295)" />
        <path opacity="0.12"
            d="M12.4971 14.3009C11.88 14.3009 11.5243 13.9557 11.5034 13.3281L11.357 8.09828C11.3361 7.46023 11.7963 7.00001 12.4866 7.00001C13.156 7.00001 13.6477 7.46023 13.6267 8.10873L13.4594 13.3177C13.4385 13.9662 13.0933 14.3009 12.4971 14.3009ZM12.4971 17.9095C11.7858 17.9095 11.2001 17.397 11.2001 16.7066C11.2001 16.0267 11.7754 15.5038 12.4971 15.5038C13.2083 15.5038 13.7836 16.0163 13.7836 16.7066C13.7836 17.4074 13.1979 17.9095 12.4971 17.9095Z"
            fill="black" />

    <defs>
        <linearGradient id="paint0_linear_2215_5295" x1="13.5" y1="20.5" x2="13.5" y2="10"
            gradientUnits="userSpaceOnUse">
            <stop stop-opacity="0.8" />
            <stop offset="1" />
        </linearGradient>
    </defs>
</svg>
