<svg width="24" height="24" viewBox="0 0 24 24" fill="none" xmlns="http://www.w3.org/2000/svg">
    <path
        d="M4.81251 4.78101C5.5544 3.66833 6.80326 3 8.14059 3H18.9994C20.6562 3 21.9994 4.34307 21.9994 5.99988L21.9999 17.9999C21.9999 19.6568 20.6568 21 18.9999 21H8.14059C6.80326 21 5.5544 20.3317 4.81251 19.219L0.369122 12.5547C0.145189 12.2188 0.145189 11.7812 0.369122 11.4453L4.81251 4.78101ZM12.9993 10.5858L10.878 8.46447C10.4875 8.07395 9.85432 8.07394 9.46379 8.46447C9.07326 8.85499 9.07326 9.48815 9.46379 9.87868L11.5851 12L9.46379 14.1213C9.07327 14.5118 9.07327 15.145 9.4638 15.5355C9.85432 15.926 10.4875 15.926 10.878 15.5355L12.9993 13.4142L15.1206 15.5355C15.5111 15.926 16.1443 15.926 16.5348 15.5355C16.9254 15.145 16.9254 14.5118 16.5348 14.1213L14.4135 12L16.5348 9.87871C16.9254 9.48817 16.9254 8.85497 16.5348 8.46444C16.1443 8.07393 15.5111 8.07394 15.1206 8.46447L12.9993 10.5858Z"
        fill="#14191A" fill-opacity="0.56" />
</svg>
