<svg width="20" height="20" viewBox="0 0 20 20" fill="none" xmlns="http://www.w3.org/2000/svg">
    <path fill-rule="evenodd" clip-rule="evenodd"
        d="M17.2254 4.64959C17.5915 5.0157 17.5915 5.60929 17.2254 5.97541L13.4754 9.72541C13.1093 10.0915 12.5157 10.0915 12.1496 9.72541C11.7835 9.35929 11.7835 8.7657 12.1496 8.39958L14.2992 6.25L3.4375 6.25C2.91974 6.25 2.5 5.83026 2.5 5.3125C2.50001 4.79473 2.91974 4.375 3.4375 4.375L14.2992 4.375L12.1496 2.22541C11.7835 1.8593 11.7835 1.2657 12.1496 0.899587C12.5157 0.533471 13.1093 0.533471 13.4754 0.899587L17.2254 4.64959ZM2.5 14.6875C2.5 14.4389 2.59877 14.2004 2.77459 14.0246L6.52459 10.2746C6.89071 9.90847 7.4843 9.90847 7.85042 10.2746C8.21653 10.6407 8.21653 11.2343 7.85042 11.6004L5.70083 13.75H16.5625C17.0803 13.75 17.5 14.1697 17.5 14.6875C17.5 15.2053 17.0803 15.625 16.5625 15.625H5.70083L7.85042 17.7746C8.21653 18.1407 8.21653 18.7343 7.85042 19.1004C7.4843 19.4665 6.89071 19.4665 6.52459 19.1004L2.77459 15.3504C2.59877 15.1746 2.5 14.9361 2.5 14.6875Z"
        fill="#14191A" />
</svg>
