<svg width="24" height="24" viewBox="0 0 24 24" fill="none" xmlns="http://www.w3.org/2000/svg">
<path fill-rule="evenodd" clip-rule="evenodd" d="M3.56918 17.899C6.00626 20.9577 10.6032 22.5249 14.4371 21.4944C19.7184 20.0748 22.8546 14.6371 21.4419 9.34876C20.4163 5.50922 16.7623 2.30791 12.8972 1.72505C12.0906 1.6034 11.4907 2.4566 11.8772 3.17588C13.7463 6.65412 13.8985 9.63108 12.4039 12.2224C10.9093 14.8137 8.25772 16.1702 4.3142 16.2892C3.49863 16.3138 3.06048 17.2605 3.56918 17.899ZM19.5294 9.86305C20.6595 14.0937 18.1506 18.4439 13.9255 19.5796C11.5166 20.2271 8.24542 19.5841 6.185 18.0833C9.62358 17.5318 12.5695 15.8979 14.118 13.2133C15.6665 10.5285 15.5997 7.16408 14.3572 3.90721C16.6859 4.94269 18.8849 7.45043 19.5294 9.86305Z" fill="black"/>
</svg>
