<svg width="24" height="24" viewBox="0 0 24 24" fill="none" xmlns="http://www.w3.org/2000/svg">
<path d="M13.1717 12.0007L8.78761 7.6166C8.5896 7.41859 8.4906 7.31959 8.4535 7.20542C8.42087 7.105 8.42087 6.99683 8.4535 6.89641C8.4906 6.78224 8.5896 6.68324 8.78761 6.48523L9.07046 6.20239C9.26847 6.00438 9.36747 5.90538 9.48163 5.86828C9.58206 5.83565 9.69023 5.83565 9.79065 5.86828C9.90481 5.90538 10.0038 6.00438 10.2018 6.20239L15.4344 11.435C15.6324 11.633 15.7314 11.732 15.7685 11.8462C15.8012 11.9466 15.8012 12.0548 15.7685 12.1552C15.7314 12.2694 15.6324 12.3684 15.4344 12.5664L10.2018 17.7989C10.0038 17.9969 9.90481 18.0959 9.79065 18.133C9.69023 18.1656 9.58206 18.1656 9.48164 18.133C9.36747 18.0959 9.26847 17.9969 9.07046 17.7989L8.78762 17.5161C8.58961 17.3181 8.4906 17.2191 8.45351 17.1049C8.42088 17.0045 8.42088 16.8963 8.45351 16.7959C8.4906 16.6817 8.58961 16.5827 8.78762 16.3847L13.1717 12.0007Z" fill="black"/>
</svg>
