<svg width="16" height="18" viewBox="0 0 16 18" fill="none" xmlns="http://www.w3.org/2000/svg">
<path d="M15.5 0.666748V16.9167C15.5 17.1469 15.3135 17.3334 15.0833 17.3334H14.25C14.0199 17.3334 13.8333 17.1469 13.8333 16.9167V10.6667H11.3333V4.83342C11.3333 2.53223 13.1988 0.666748 15.5 0.666748ZM5.5 10.5834V16.9167C5.5 17.1469 5.31345 17.3334 5.08333 17.3334H4.25C4.01988 17.3334 3.83333 17.1469 3.83333 16.9167V10.5834C1.93147 10.1973 0.5 8.51591 0.5 6.50008V1.91675C0.5 1.68663 0.686548 1.50008 0.916667 1.50008H1.75C1.98012 1.50008 2.16667 1.68663 2.16667 1.91675V7.33342H3.83333V1.91675C3.83333 1.68663 4.01988 1.50008 4.25 1.50008H5.08333C5.31345 1.50008 5.5 1.68663 5.5 1.91675V7.33342H7.16667V1.91675C7.16667 1.68663 7.35321 1.50008 7.58333 1.50008H8.41667C8.64678 1.50008 8.83333 1.68663 8.83333 1.91675V6.50008C8.83333 8.51591 7.40183 10.1973 5.5 10.5834Z" fill="black"/>
</svg>
