<svg width="25" height="24" viewBox="0 0 25 24" fill="none" xmlns="http://www.w3.org/2000/svg">
    <path
        d="M18.5537 3.83591C19.1428 3.35579 20.0115 3.3904 20.5605 3.93942C21.1095 4.48845 21.1441 5.35711 20.664 5.94626L20.5605 6.06052L14.6211 12L20.5605 17.9394L20.664 18.0537C21.1441 18.6428 21.1095 19.5115 20.5605 20.0605C20.0115 20.6095 19.1428 20.6441 18.5537 20.164L18.4394 20.0605L12.5 14.1211L6.56052 20.0605C5.97473 20.6463 5.02521 20.6463 4.43942 20.0605C3.85364 19.4747 3.85364 18.5252 4.43942 17.9394L10.3789 12L4.43942 6.06052L4.33591 5.94626C3.85579 5.35711 3.8904 4.48845 4.43942 3.93942C4.98845 3.3904 5.85711 3.35579 6.44626 3.83591L6.56052 3.93942L12.5 9.87888L18.4394 3.93942L18.5537 3.83591Z"
        fill="url(#paint0_linear_2215_5302)" />
    <defs>
        <linearGradient id="paint0_linear_2215_5302" x1="5.21088" y1="17.9502" x2="10.1382"
            y2="10.3376" gradientUnits="userSpaceOnUse">
            <stop stop-opacity="0.8" />
            <stop offset="1" />
        </linearGradient>
    </defs>
</svg>
