<svg width="24" height="24" viewBox="0 0 24 24" fill="none" xmlns="http://www.w3.org/2000/svg">
<g clip-path="url(#clip0_1261_1669)">
<mask id="mask0_1261_1669" style="mask-type:luminance" maskUnits="userSpaceOnUse" x="0" y="0" width="24" height="24">
<path d="M12 24C18.6274 24 24 18.6274 24 12C24 5.37258 18.6274 0 12 0C5.37258 0 0 5.37258 0 12C0 18.6274 5.37258 24 12 24Z" fill="white"/>
</mask>
<g mask="url(#mask0_1261_1669)">
<path d="M0 8.34375L11.9156 7.3125L24 8.34375V9.38906L22.1156 11.925L24 14.6109V15.6562L12.0938 16.7531L0 15.6562V14.6109L1.72031 11.8266L0 9.38906V8.34375Z" fill="#D80027"/>
<path d="M0 0H24V8.34375H0V0Z" fill="#338AF3"/>
<path d="M0 9.38904H24V14.6109H0V9.38904Z" fill="#EEEEEE"/>
<path d="M0 15.6562H24V24H0V15.6562Z" fill="#6DA544"/>
<path d="M5.49375 4.95474C5.49312 4.4198 5.67551 3.90075 6.01062 3.48378C6.34573 3.06681 6.81339 2.77703 7.33593 2.66255C7.17108 2.62745 7.00292 2.61016 6.83437 2.61099C6.50846 2.61608 6.18719 2.68909 5.89109 2.82536C5.595 2.96162 5.33058 3.15816 5.11473 3.4024C4.89888 3.64664 4.73635 3.93322 4.63752 4.24382C4.53869 4.55443 4.50574 4.88224 4.54076 5.2063C4.57579 5.53037 4.67802 5.84356 4.84093 6.12588C5.00385 6.4082 5.22386 6.65343 5.48691 6.84591C5.74995 7.03839 6.05026 7.17389 6.36864 7.24375C6.68701 7.3136 7.01646 7.31628 7.33593 7.25161C6.28125 7.01724 5.49375 6.07974 5.49375 4.95474ZM8.72812 6.02349L8.88281 6.51099H9.39843L8.97656 6.81568L9.14062 7.30318L8.71875 7.00318L8.31093 7.30318L8.47031 6.81568L8.04843 6.51099H8.56406L8.72812 6.02349ZM10.3687 6.02349L10.5281 6.51099H11.0437L10.6219 6.81568L10.7812 7.30318L10.3687 7.00318L9.94687 7.30318L10.1109 6.81568L9.68906 6.51099H10.2047L10.3687 6.02349ZM12.0094 6.02349L12.1687 6.51099H12.6844L12.2625 6.81568L12.4266 7.30318L12.0047 7.00318L11.5922 7.30318L11.7516 6.81568L11.3297 6.51099H11.8453L12.0094 6.02349ZM13.65 6.02349L13.8094 6.51099H14.325L13.9031 6.81568L14.0672 7.30318L13.6453 7.00318L13.2328 7.30318L13.3922 6.81568L12.9703 6.51099H13.4859L13.65 6.02349ZM15.2906 6.02349L15.45 6.51099H15.9656L15.5437 6.81568L15.7078 7.30318L15.2859 7.00318L14.8734 7.30318L15.0328 6.81568L14.6203 6.51099H15.1359L15.2906 6.02349ZM10.3687 4.31724L10.5281 4.80474H11.0437L10.6219 5.10943L10.7812 5.59693L10.3687 5.29224L9.94687 5.59693L10.1109 5.10943L9.68906 4.80474H10.2047L10.3687 4.31724ZM12.0094 4.31724L12.1687 4.80474H12.6844L12.2625 5.10943L12.4266 5.59693L12.0047 5.29224L11.5922 5.59693L11.7516 5.10943L11.3297 4.80474H11.8453L12.0094 4.31724ZM13.65 4.31724L13.8094 4.80474H14.325L13.9031 5.10943L14.0672 5.59693L13.6453 5.29224L13.2328 5.59693L13.3922 5.10943L12.9703 4.80474H13.4859L13.65 4.31724ZM15.2906 4.31724L15.45 4.80474H15.9656L15.5437 5.10943L15.7078 5.59693L15.2859 5.29224L14.8734 5.59693L15.0328 5.10943L14.6203 4.80474H15.1359L15.2906 4.31724ZM12.0094 2.61099L12.1687 3.09849H12.6844L12.2625 3.39849L12.4312 3.89068L12.0094 3.58599L11.5969 3.89068L11.7562 3.39849L11.3344 3.09849H11.85L12.0094 2.61099ZM13.65 2.61099L13.8094 3.09849H14.325L13.9031 3.39849L14.0719 3.89068L13.65 3.58599L13.2375 3.89068L13.3969 3.39849L12.975 3.09849H13.4906L13.65 2.61099ZM15.2906 2.61099L15.45 3.09849H15.9656L15.5437 3.39849L15.7125 3.89068L15.2906 3.58599L14.8781 3.89068L15.0375 3.39849L14.625 3.09849H15.1406L15.2906 2.61099Z" fill="#EEEEEE"/>
</g>
</g>
<defs>
<clipPath id="clip0_1261_1669">
<rect width="24" height="24" fill="white"/>
</clipPath>
</defs>
</svg>
