<svg width="24" height="24" viewBox="0 0 24 24" fill="none" xmlns="http://www.w3.org/2000/svg">
<path fill-rule="evenodd" clip-rule="evenodd" d="M9.99991 2.16669C9.99991 1.6144 9.55219 1.16669 8.99991 1.16669C8.44762 1.16669 7.99991 1.6144 7.99991 2.16669V3.49999H3.16666C2.61437 3.49999 2.16666 3.9477 2.16666 4.49999C2.16666 5.05227 2.61437 5.49999 3.16666 5.49999H7.96446C7.82109 7.50786 7.25284 9.27407 6.44321 10.5694C6.37381 10.6805 6.30315 10.7874 6.23135 10.8901C5.60678 10.3139 5.3333 9.70975 5.3333 9.16652C5.3333 8.61423 4.88559 8.16652 4.3333 8.16652C3.78102 8.16652 3.3333 8.61423 3.3333 9.16652C3.3333 10.3978 3.92676 11.4611 4.82209 12.3076C4.28107 12.6593 3.71877 12.8332 3.16666 12.8332C2.61437 12.8332 2.16666 13.2809 2.16666 13.8332C2.16666 14.3855 2.61437 14.8332 3.16666 14.8332C4.44035 14.8332 5.58351 14.3283 6.54497 13.5103C8.06963 14.3036 10.0175 14.7811 12.1253 14.8328C12.6774 14.8464 13.136 14.4098 13.1496 13.8577C13.1631 13.3055 12.7265 12.847 12.1744 12.8334C10.5397 12.7933 9.07684 12.4617 7.92605 11.9552C7.99909 11.8486 8.07015 11.7399 8.13919 11.6295C9.16489 9.9884 9.82244 7.84629 9.96886 5.49999H11.3332C11.8855 5.49999 12.3332 5.05227 12.3332 4.49999C12.3332 3.9477 11.8855 3.49999 11.3332 3.49999H9.99991V2.16669ZM18.0803 11.0937C17.9198 10.7326 17.5616 10.4998 17.1665 10.4998C16.7713 10.4998 16.4131 10.7326 16.2526 11.0937L11.586 21.5935C11.3617 22.0982 11.589 22.6892 12.0937 22.9135C12.5984 23.1378 13.1894 22.9105 13.4137 22.4058L14.1868 20.6664H20.1462L20.9193 22.4058C21.1436 22.9105 21.7345 23.1378 22.2392 22.9135C22.7439 22.6892 22.9712 22.0982 22.7469 21.5935L18.0803 11.0937ZM17.1665 13.962L19.2573 18.6664H15.0756L17.1665 13.962Z" fill="black"/>
</svg>
