<svg width="20" height="20" viewBox="0 0 20 20" fill="none" xmlns="http://www.w3.org/2000/svg">
    <path
        d="M12.4997 17C12.4997 18.1968 11.5295 19.167 10.3327 19.167H9.66669C8.47004 19.1668 7.49971 18.1967 7.49969 17H12.4997ZM14.6667 8.33398C14.6667 5.75665 12.577 3.66699 9.99969 3.66699C7.42251 3.66717 5.33368 5.75676 5.33368 8.33398V12.5C5.33368 12.9706 5.24421 13.4206 5.0827 13.834H14.9177C14.7561 13.4206 14.6667 12.9706 14.6667 12.5V8.33398ZM16.6667 12.5C16.6667 13.4205 17.4132 14.167 18.3337 14.167V15.834H1.66669V14.167C2.52958 14.167 3.23947 13.5113 3.32489 12.6709L3.33368 12.5V8.33398C3.33368 4.65219 6.31794 1.66717 9.99969 1.66699C13.6816 1.66699 16.6667 4.65208 16.6667 8.33398V12.5Z"
        fill="#14191A" />
</svg>
