<svg width="20" height="20" viewBox="0 0 20 20" fill="none" xmlns="http://www.w3.org/2000/svg">
<path d="M10 5.025C9.11594 5.025 8.2681 5.37619 7.64298 6.00131C7.01786 6.62643 6.66667 7.47428 6.66667 8.35833C6.66667 9.24239 7.01786 10.0902 7.64298 10.7154C8.2681 11.3405 9.11594 11.6917 10 11.6917C10.8841 11.6917 11.7319 11.3405 12.357 10.7154C12.9821 10.0902 13.3333 9.24239 13.3333 8.35833C13.3333 7.47428 12.9821 6.62643 12.357 6.00131C11.7319 5.37619 10.8841 5.025 10 5.025ZM8.33333 8.35833C8.33333 7.9163 8.50893 7.49238 8.82149 7.17982C9.13405 6.86726 9.55797 6.69166 10 6.69166C10.442 6.69166 10.866 6.86726 11.1785 7.17982C11.4911 7.49238 11.6667 7.9163 11.6667 8.35833C11.6667 8.80036 11.4911 9.22428 11.1785 9.53684C10.866 9.8494 10.442 10.025 10 10.025C9.55797 10.025 9.13405 9.8494 8.82149 9.53684C8.50893 9.22428 8.33333 8.80036 8.33333 8.35833Z" fill="black"/>
<path fill-rule="evenodd" clip-rule="evenodd" d="M12.2033 16.3183C11.5699 16.9555 11.1216 17.5875 10.9343 18.3444C10.8237 18.7912 10.4636 19.17 10.0033 19.17C9.5431 19.17 9.18297 18.7911 9.0721 18.3444C8.88437 17.5881 8.43534 16.9562 7.80083 16.3192C7.37417 15.8908 6.88583 15.4825 6.35083 15.0358L6.3225 15.0108C5.7875 14.5633 5.21 14.0792 4.67417 13.5392C3.63155 12.4878 2.92346 11.1513 2.63914 9.69819C2.35483 8.24505 2.50701 6.74027 3.0765 5.37347C3.64599 4.00668 4.60732 2.83904 5.83932 2.0177C7.07133 1.19636 8.51889 0.758072 9.99958 0.758072C11.4803 0.758072 12.9278 1.19636 14.1598 2.0177C15.3919 2.83904 16.3532 4.00668 16.9227 5.37347C17.4922 6.74027 17.6443 8.24505 17.36 9.69819C17.0757 11.1513 16.3676 12.4878 15.325 13.5392C14.79 14.0792 14.2133 14.5642 13.6792 15.0108L13.6542 15.0317C13.1183 15.48 12.6292 15.89 12.2033 16.3183ZM4.16667 8.25833C4.16661 7.30003 4.40265 6.35648 4.85391 5.51108C5.30517 4.66568 5.95776 3.94447 6.75399 3.41122C7.55022 2.87796 8.46556 2.54908 9.4191 2.45365C10.3726 2.35822 11.335 2.49918 12.2211 2.86406C13.1072 3.22894 13.8898 3.80652 14.4996 4.54572C15.1095 5.28492 15.5278 6.16298 15.7177 7.10229C15.9076 8.04159 15.8631 9.01321 15.5882 9.93124C15.3133 10.8493 14.8165 11.6854 14.1417 12.3658C13.6692 12.8425 13.15 13.28 12.6083 13.7325L12.5583 13.7758C12.0417 14.2075 11.5025 14.6592 11.0217 15.1425C10.7825 15.3833 10.4183 16.2933 10.1925 16.8583L10.1542 16.9542H9.85667C9.80696 16.833 9.75918 16.711 9.71333 16.5883C9.525 16.0942 9.27417 15.4367 8.98167 15.1425C8.5 14.6592 7.96083 14.2092 7.44583 13.7783L7.39167 13.7333C6.85 13.2792 6.33083 12.8425 5.85833 12.3658C4.77286 11.2746 4.16449 9.79747 4.16667 8.25833Z" fill="black"/>
</svg>
