<svg width="12" height="12" viewBox="0 0 12 12" fill="none" xmlns="http://www.w3.org/2000/svg">
<g transform="translate(-11.5694 -10.4971)">
<path d="M17.121 11.0013C17.3597 10.7329 17.7791 10.7329 18.0178 11.0013L19.2775 12.4179C19.3839 12.5376 19.5338 12.6097 19.6937 12.6183L21.5866 12.72C21.9453 12.7392 22.2068 13.0671 22.1457 13.4211L21.8236 15.2892C21.7964 15.447 21.8334 15.6092 21.9264 15.7395L23.0272 17.2829C23.2357 17.5753 23.1424 17.9842 22.8276 18.1571L21.1662 19.07C21.0259 19.1472 20.9222 19.2772 20.8782 19.4312L20.3579 21.2541C20.2593 21.5995 19.8815 21.7814 19.55 21.6432L17.8004 20.9134C17.6526 20.8518 17.4862 20.8518 17.3384 20.9134L15.5888 21.6432C15.2573 21.7814 14.8795 21.5995 14.7809 21.2541L14.2606 19.4312C14.2166 19.2772 14.1129 19.1472 13.9726 19.07L12.3112 18.1571C11.9964 17.9842 11.9031 17.5753 12.1116 17.2829L13.2124 15.7395C13.3054 15.6092 13.3424 15.447 13.3152 15.2892L12.9931 13.4211C12.932 13.0671 13.1935 12.7392 13.5522 12.72L15.4451 12.6183C15.605 12.6097 15.7549 12.5376 15.8613 12.4179L17.121 11.0013Z" fill="#FFCA2D"/>
<path d="M17.3448 11.2002C17.4641 11.0661 17.6747 11.0661 17.794 11.2002L19.0538 12.6172C19.2134 12.7966 19.438 12.9051 19.6778 12.918L21.5704 13.0195C21.7497 13.0292 21.8802 13.1932 21.8497 13.3701L21.5284 15.2383C21.4876 15.475 21.5422 15.7185 21.6817 15.9141L22.7833 17.457C22.8874 17.6032 22.84 17.8081 22.6827 17.8945L21.0215 18.8067C20.8111 18.9223 20.6559 19.1178 20.5899 19.3486L20.0694 21.1719C20.02 21.3445 19.8308 21.4353 19.6651 21.3662L17.9161 20.6367C17.6944 20.5443 17.4444 20.5443 17.2227 20.6367L15.4737 21.3662C15.308 21.4353 15.1188 21.3445 15.0694 21.1719L14.5489 19.3486C14.4829 19.1178 14.3277 18.9223 14.1173 18.8067L12.4561 17.8945C12.2988 17.8081 12.2514 17.6032 12.3555 17.457L13.4571 15.9141C13.5966 15.7185 13.6512 15.475 13.6104 15.2383L13.2891 13.3701C13.2586 13.1932 13.3891 13.0292 13.5684 13.0195L15.461 12.918C15.7008 12.9051 15.9254 12.7966 16.085 12.6172L17.3448 11.2002Z" stroke="url(#paint0_linear_0_63)" stroke-width="0.6"/>
</g>
<g transform="translate(3.596 2.4)">
<path d="M4.80779 2.47688C4.81081 2.09434 4.68964 1.75762 4.4685 1.45235C4.25073 1.1519 3.97827 0.90802 3.6749 0.6978C3.27987 0.424095 2.84388 0.224224 2.41822 0.00586455C2.40096 -0.00303027 2.37051 -0.00140249 2.35284 0.00801556C2.05045 0.168413 1.74551 0.324508 1.44841 0.494324C1.05188 0.720938 0.696428 1.00092 0.411244 1.36154C0.161919 1.67681 -0.000868281 2.0254 3.48418e-06 2.43886C0.00244443 3.56914 0.00087515 4.69948 0.000991385 5.82976C0.000991385 5.85557 0.000177731 5.88156 0.00261867 5.90714C0.00860479 5.9701 0.0346415 5.99836 0.0978155 5.99876C0.335401 6.00045 0.572986 5.99946 0.817371 5.99946C0.817371 5.95574 0.817371 5.91906 0.817371 5.88232C0.817487 5.03225 0.817777 4.18224 0.817777 3.33224C0.86741 3.26957 0.925527 3.21346 0.988178 3.16108C1.18694 2.99493 1.42191 2.8911 1.65258 2.78029C1.66351 2.77506 1.68263 2.77994 1.69512 2.78587C1.76004 2.81686 1.82409 2.84965 1.88842 2.88197C2.04987 2.96296 2.21121 3.04411 2.35237 3.15905C2.57235 3.33811 2.69306 3.55833 2.68946 3.85314C2.68103 4.55234 2.68661 5.25166 2.68661 5.95092C2.68661 5.96097 2.688 5.9883 2.68882 5.99946C2.69963 6.0001 2.70771 5.99946 2.71584 5.99946C2.85283 5.99935 2.98981 6.0001 3.12673 5.99946C3.19932 5.99911 3.21333 5.96871 3.21339 5.89534C3.21362 5.62605 3.21327 5.35671 3.21327 5.08736C3.21339 4.63379 3.21124 4.18021 3.21484 3.72663C3.21676 3.48153 3.13911 3.26584 2.99742 3.07033C2.85794 2.87784 2.68336 2.72163 2.48901 2.58693C2.23597 2.41159 1.95659 2.28358 1.68396 2.1437C1.67292 2.138 1.65339 2.13905 1.64206 2.14504C1.44835 2.24777 1.25302 2.34776 1.06269 2.45659C0.977833 2.50508 0.895946 2.55746 0.817661 2.6142C0.817661 2.58432 0.817661 2.55443 0.817661 2.52455C0.817603 2.40479 0.841199 2.29055 0.883276 2.17928C0.974056 1.93895 1.13928 1.75518 1.33223 1.59379C1.64253 1.33439 2.00931 1.17236 2.36929 0.999468C2.38637 0.991271 2.41619 0.998887 2.43572 1.00825C2.53701 1.05662 2.63698 1.10783 2.7374 1.15818C2.9894 1.28463 3.24123 1.41125 3.46161 1.59065C3.80491 1.87017 3.99333 2.21393 3.98781 2.67408C3.97461 3.76547 3.98333 4.85715 3.98339 5.94871C3.98339 5.96446 3.98554 5.98028 3.98688 5.99772C4.00373 5.99871 4.01634 5.99998 4.02907 5.99998C4.24289 5.99981 4.45676 6.00004 4.67051 5.999C4.78384 5.99847 4.80564 5.97644 4.80575 5.86197C4.8061 5.44159 4.80552 5.02121 4.80558 4.60082C4.80552 3.89296 4.80215 3.18486 4.80779 2.47688Z" fill="#47390D"/>
<path d="M0.817371 5.88232V5.99946H2.68882C2.688 5.9883 2.68661 5.96097 2.68661 5.95092C2.68661 5.25166 2.68103 4.55234 2.68946 3.85314C2.69306 3.55833 2.57235 3.33811 2.35237 3.15905C2.21121 3.04411 2.04987 2.96296 1.88842 2.88197C1.82409 2.84965 1.76004 2.81686 1.69512 2.78587C1.68263 2.77994 1.66351 2.77506 1.65258 2.78029C1.42191 2.8911 1.18694 2.99493 0.988178 3.16108C0.925527 3.21346 0.86741 3.26957 0.817777 3.33224C0.817777 4.18224 0.817487 5.03225 0.817371 5.88232Z" fill="#47390D"/>
</g>
<defs>
<linearGradient id="paint0_linear_0_63" x1="11.5694" y1="10.4971" x2="23.5694" y2="22.4971" gradientUnits="userSpaceOnUse">
<stop stop-opacity="0.2"/>
<stop offset="0.797899" stop-opacity="0"/>
</linearGradient>
</defs>
</svg>
