<svg width="24" height="24" viewBox="0 0 24 24" fill="none" xmlns="http://www.w3.org/2000/svg">
<path d="M2 17C2.55228 17 3 17.4477 3 18V20C3 20.5523 3.44771 21 4 21H6C6.55228 21 7 21.4477 7 22C7 22.5523 6.55228 23 6 23H4C2.34315 23 1 21.6569 1 20V18C1 17.4477 1.44772 17 2 17Z" fill="black"/>
<path d="M22 17C22.5523 17 23 17.4477 23 18V20C23 21.6569 21.6569 23 20 23H18C17.4477 23 17 22.5523 17 22C17 21.4477 17.4477 21 18 21H20C20.5523 21 21 20.5523 21 20V18C21 17.4477 21.4477 17 22 17Z" fill="black"/>
<path d="M12 13.668C15.3459 13.668 17.3133 15.0054 18.1768 16.0088C18.5552 16.4486 18.8162 16.8977 18.8555 17.4766V19H5.14453V17.4766C5.18947 16.8138 5.48874 16.4181 5.94727 15.9375C6.91209 14.9262 8.9467 13.668 12 13.668Z" fill="black"/>
<path d="M12 4.14648C14.2852 4.14648 15.0469 6.06877 15.0469 7.95508C15.0467 9.84122 13.6967 11.3828 12 11.3828C10.3033 11.3828 8.9533 9.87642 8.95312 7.95508C8.95312 6.03356 9.71476 4.14649 12 4.14648Z" fill="black"/>
<path d="M6 1C6.55228 1 7 1.44772 7 2C7 2.55228 6.55228 3 6 3H4C3.44772 3 3 3.44772 3 4V6C3 6.55228 2.55228 7 2 7C1.44772 7 1 6.55228 1 6V4C1 2.34315 2.34315 1 4 1H6Z" fill="black"/>
<path d="M20 1C21.6569 1 23 2.34315 23 4V6C23 6.55228 22.5523 7 22 7C21.4477 7 21 6.55228 21 6V4C21 3.44771 20.5523 3 20 3H18C17.4477 3 17 2.55228 17 2C17 1.44772 17.4477 1 18 1H20Z" fill="black"/>
</svg>
