<svg width="24" height="24" viewBox="0 0 24 24" fill="none" xmlns="http://www.w3.org/2000/svg">

        <path
            d="M5.90918 20.2676C6.32227 20.584 6.83203 20.4785 7.42969 20.0479L12 16.6904L16.5703 20.0479C17.168 20.4785 17.6865 20.584 18.0996 20.2676C18.5039 19.96 18.5918 19.4502 18.3545 18.7559L16.5527 13.3857L21.167 10.0723C21.7559 9.65039 22.0107 9.18457 21.8438 8.69238C21.6768 8.20898 21.2109 7.97168 20.4814 7.98047L14.8213 8.01562L13.0986 2.61914C12.8789 1.91602 12.5186 1.53809 12 1.53809C11.4902 1.53809 11.1299 1.91602 10.9014 2.61914L9.17871 8.01562L3.51856 7.98047C2.78907 7.97168 2.33203 8.20898 2.16504 8.69238C1.99805 9.18457 2.24414 9.65039 2.8418 10.0723L7.45606 13.3857L5.64551 18.7559C5.40821 19.4502 5.4961 19.96 5.90918 20.2676Z"
            fill="url(#paint0_linear_1558_1685)" />

    <defs>
        <linearGradient id="paint0_linear_1558_1685" x1="-5.48707" y1="0.0492711" x2="8.16058"
            y2="28.8696" gradientUnits="userSpaceOnUse">
            <stop offset="0.543805" />
            <stop offset="1" stop-opacity="0.6" />
        </linearGradient>
    </defs>
</svg>
