<svg width="24" height="24" viewBox="0 0 24 24" fill="none" xmlns="http://www.w3.org/2000/svg">
<path fill-rule="evenodd" clip-rule="evenodd" d="M20 21C20.5523 21 21 20.5523 21 20V9.48907C21 9.18048 20.8575 8.88917 20.6139 8.69972L12.6139 2.47749C12.2528 2.19663 11.7472 2.19663 11.3861 2.47749L3.38606 8.69972C3.14247 8.88917 3 9.18048 3 9.48907V20C3 20.5523 3.44772 21 4 21H20ZM9 17.5C9 17.7761 9.22386 18 9.5 18H14.5C14.7761 18 15 17.7761 15 17.5V15.5C15 15.2239 14.7761 15 14.5 15H9.5C9.22386 15 9 15.2239 9 15.5V17.5Z" fill="black"/>
</svg>
