<svg width="24" height="24" viewBox="0 0 24 24" fill="none" xmlns="http://www.w3.org/2000/svg">
<path d="M20 5C21.1046 5 22 5.89543 22 7V8H2V7C2 5.89543 2.89543 5 4 5H20Z" fill="black"/>
<path fill-rule="evenodd" clip-rule="evenodd" d="M2 11V17C2 18.1046 2.89543 19 4 19H20C21.1046 19 22 18.1046 22 17V11H2ZM5.29289 15.7071C5.48043 15.8946 5.73478 16 6 16H9C9.26522 16 9.51957 15.8946 9.70711 15.7071C9.89464 15.5196 10 15.2652 10 15C10 14.7348 9.89464 14.4804 9.70711 14.2929C9.51957 14.1054 9.26522 14 9 14H6C5.73478 14 5.48043 14.1054 5.29289 14.2929C5.10536 14.4804 5 14.7348 5 15C5 15.2652 5.10536 15.5196 5.29289 15.7071Z" fill="black"/>
</svg>
