<svg width="24" height="24" viewBox="0 0 24 24" fill="none" xmlns="http://www.w3.org/2000/svg">
<path fill-rule="evenodd" clip-rule="evenodd" d="M6.5 19H17.5L17.8956 21.3733C17.9558 21.7349 18.2687 22 18.6353 22H20.25C20.6642 22 21 21.6642 21 21.25V12C21.5523 12 22 11.5523 22 11V9C22 8.44772 21.5523 8 21 8V5C21 3.89543 20.1046 3 19 3H5C3.89543 3 3 3.89543 3 5V8C2.44772 8 2 8.44772 2 9V11C2 11.5523 2.44772 12 3 12V21.25C3 21.6642 3.3358 22 3.75 22H5.3647C5.7313 22 6.0442 21.7349 6.1044 21.3733L6.5 19ZM5 12V5.5C5 5.22386 5.22386 5 5.5 5H18.5C18.7761 5 19 5.22386 19 5.5V12H5ZM9 15.5C9 16.3284 8.32843 17 7.5 17C6.67157 17 6 16.3284 6 15.5C6 14.6716 6.67157 14 7.5 14C8.32843 14 9 14.6716 9 15.5ZM18 15.5C18 16.3284 17.3284 17 16.5 17C15.6716 17 15 16.3284 15 15.5C15 14.6716 15.6716 14 16.5 14C17.3284 14 18 14.6716 18 15.5Z" fill="black"/>
</svg>
