<svg width="24" height="24" viewBox="0 0 24 24" fill="none" xmlns="http://www.w3.org/2000/svg">
    <path
        d="M18 3C18.5523 3 19 3.44772 19 4C19 4.55228 18.5523 5 18 5H6.00781C5.45556 5.00004 5.00781 5.44774 5.00781 6C5.00781 6.55226 5.45556 6.99996 6.00781 7H15.5996C17.8398 7 18.9608 6.99957 19.8164 7.43555C20.5689 7.81901 21.181 8.43109 21.5645 9.18359C22.0004 10.0392 22 11.1602 22 13.4004V13.5996C22 15.8398 22.0004 16.9608 21.5645 17.8164C21.181 18.5689 20.5689 19.181 19.8164 19.5645C18.9608 20.0004 17.8398 20 15.5996 20H8.40039C6.16018 20 5.03924 20.0004 4.18359 19.5645C3.43109 19.181 2.81901 18.5689 2.43555 17.8164C1.99957 16.9608 2 15.8398 2 13.5996V8.66699C2 7.11561 1.99963 6.33922 2.21191 5.71387C2.61166 4.53649 3.53649 3.61166 4.71387 3.21191C5.33922 2.99963 6.11561 3 7.66699 3H18ZM17.5 12C16.6716 12 16 12.6716 16 13.5C16 14.3284 16.6716 15 17.5 15C18.3284 15 19 14.3284 19 13.5C19 12.6716 18.3284 12 17.5 12Z"
        fill="url(#paint0_linear_1764_3338)" />
    <defs>
        <linearGradient id="paint0_linear_1764_3338" x1="-5.68546" y1="1.66177" x2="5.65553"
            y2="28.602" gradientUnits="userSpaceOnUse">
            <stop offset="0.543805" />
            <stop offset="1" stop-opacity="0.6" />
        </linearGradient>
    </defs>
</svg>

