<svg width="211" height="32" viewBox="0 0 211 32" fill="none" xmlns="http://www.w3.org/2000/svg">
    <g clip-path="url(#clip0_4913_7387)">
        <path
            d="M53.9004 15.8031L48.2118 7.93884H45.414V25.5228H48.4557V13.2351C49.4938 14.7102 51.1899 17.0387 53.3437 19.9436L53.4465 20.0828H54.305L54.4079 19.9436C57.1362 16.2585 58.5452 14.2753 59.245 13.264V25.5228H62.3118V7.93884H59.539L53.9004 15.8031Z"
            fill="#00B26B" />
        <path
            d="M74.2625 12.4799C72.0438 18.3082 71.1468 20.6733 70.6844 21.9755C70.2247 20.7175 69.3182 18.4404 66.7012 12.4647L66.6117 12.2603H63.3321L69.0554 25.5228H69.2126L68.8077 26.5353C68.5198 27.2877 68.632 27.102 68.2786 27.5917C67.9248 28.0985 67.4124 28.3351 66.6648 28.3351C65.9531 28.3351 65.3141 28.1994 64.6528 27.9074L64.171 27.6947V30.5443L64.4021 30.6231C65.2626 30.9174 65.9514 30.9728 66.9215 30.9728C68.5102 30.9728 69.6904 30.4105 70.528 29.2555C70.9693 28.6526 70.9625 28.6256 71.4705 27.3666L77.5222 12.26H74.3467L74.2625 12.4799Z"
            fill="#00B26B" />
        <path
            d="M92.0762 17.7347C92.0762 18.395 92.0762 19.2166 91.9065 19.868C91.4473 21.7856 89.8332 22.8849 87.4759 22.8849C84.9286 22.8849 83.278 21.7018 82.9488 19.6464C82.8845 19.1779 82.8493 18.4991 82.8493 17.7347V7.93884H79.7824V17.8363C79.7824 18.678 79.841 19.5885 79.9408 20.2797C80.4966 23.7015 83.3645 25.8273 87.4244 25.8273C91.2635 25.8273 94.0595 23.8116 94.9032 20.4357C95.1146 19.5942 95.1433 18.5852 95.1433 17.7085V7.93884H92.0762V17.7347Z"
            fill="#00B26B" />
        <path
            d="M101.023 22.8203L108.303 14.1974V12.26H97.014V15.0748H97.3565C100.371 15.0748 102.399 15.0386 103.885 15.0119L96.5784 23.6606V25.5226H108.482V22.7831H108.139C105.063 22.7831 102.506 22.7966 101.023 22.8203Z"
            fill="#00B26B" />
        <path
            d="M117.879 12.0055C116.237 12.0055 114.682 12.6825 113.663 13.7901V6.10828H110.749V24.7921L110.983 24.8702C112.828 25.4799 114.514 25.7774 116.138 25.7774C120.827 25.7774 123.626 23.0559 123.626 18.4971C123.626 14.4322 121.478 12.0055 117.879 12.0055ZM116.343 23.0127C115.101 23.0127 114.311 22.8091 113.714 22.5874V18.5478C113.714 17.6678 113.906 16.8969 114.237 16.4367C114.999 15.409 116.113 14.7956 117.214 14.7956C119.485 14.7956 120.636 16.0923 120.636 18.6496C120.636 22.4457 117.947 23.0127 116.343 23.0127Z"
            fill="#00B26B" />
        <path
            d="M132.404 11.9291C128.341 11.9291 125.504 14.7659 125.504 18.8283C125.504 23.0646 128.202 25.802 132.377 25.802C135.044 25.802 136.723 24.9728 137.887 24.251L138.048 24.1517V21.1267L137.415 21.5318C136.263 22.2717 135.07 23.0374 132.582 23.0374C130.319 23.0374 128.685 21.7342 128.488 19.8283H138.579L138.61 19.5228C138.633 19.2817 138.637 18.7387 138.637 18.2942C138.637 14.3084 136.306 11.9291 132.404 11.9291ZM128.651 17.2425C128.985 15.5819 130.379 14.567 132.377 14.567C134.278 14.567 135.596 15.6279 135.757 17.2425H128.651Z"
            fill="#00B26B" />
        <path
            d="M153.245 12.26H149.322L144.374 17.0319V6.10828H141.409V25.5228H144.4V19.9832L149.934 25.5228H153.915L146.775 18.3034L153.245 12.26Z"
            fill="#00B26B" />
        <path d="M155.42 25.5228H158.334V10.8715L155.42 12.0674V25.5228Z" fill="#00B26B" />
        <path
            d="M167.72 17.7729L166.253 17.2119C164.804 16.6893 164.66 16.4545 164.66 16.0057C164.66 15.4068 164.897 14.7192 166.751 14.7192C168.224 14.7192 169.284 15.0721 170.422 15.6019L170.91 15.8293V12.7736L170.691 12.6898C169.455 12.2161 168.037 11.9551 166.699 11.9551C163.487 11.9551 161.644 13.3761 161.644 15.8538C161.644 18.1974 163.365 19.1305 164.869 19.6826L166.456 20.2413C168.013 20.7911 168.406 21.005 168.406 21.5727C168.406 22.2548 168.142 23.0377 166.085 23.0377C164.576 23.0377 163.295 22.6711 161.799 21.8126L161.286 21.5173V24.6519L161.47 24.7469C162.759 25.411 164.389 25.7774 166.059 25.7774C169.483 25.7774 171.448 24.282 171.448 21.6748C171.448 19.5535 170.245 18.7265 167.72 17.7729Z"
            fill="#00B26B" />
        <path
            d="M177.979 12.3107V7.4939L174.963 8.71077V25.5228H177.979V14.8463H181.352L180.722 12.3107H177.979Z"
            fill="#00B26B" />
        <path
            d="M193.058 13.446C191.897 12.4894 190.517 12.0057 188.945 12.0057C187.125 12.0057 185.533 12.6813 184.215 14.0167C182.928 15.3476 182.276 16.9835 182.276 18.8782C182.276 20.7639 182.927 22.4065 184.217 23.7684C185.533 25.1011 187.125 25.7774 188.945 25.7774C190.505 25.7774 191.885 25.2852 193.058 24.3137V25.2935H196.075V12.4103L193.058 13.0352V13.446ZM191.82 21.8488C191.071 22.6371 190.155 23.0377 189.098 23.0377C188.041 23.0377 187.126 22.6374 186.38 21.8523C185.613 21.0197 185.241 20.0469 185.241 18.8782C185.241 17.728 185.613 16.7629 186.38 15.9304C187.121 15.1268 188.035 14.7195 189.098 14.7195C190.162 14.7195 191.077 15.1268 191.817 15.9304C192.584 16.7629 192.957 17.7267 192.957 18.8782C192.956 20.0467 192.584 21.0197 191.82 21.8488Z"
            fill="#00B26B" />
        <path
            d="M210.206 14.1949C209.434 12.7459 207.948 11.98 205.907 11.98C204.2 11.98 202.524 12.6985 201.486 13.8085V12.26H198.572V25.5225H201.537V18.2425C201.537 17.4891 201.707 16.8612 202.047 16.3666C202.774 15.2348 204.186 14.7192 205.19 14.7192C206.281 14.7192 207.035 15.0636 207.433 15.7501C207.702 16.1886 207.844 16.9717 207.844 18.0137V25.5225H210.784V17.404C210.784 16.5959 210.708 15.1038 210.206 14.1949Z"
            fill="#00B26B" />
        <path
            d="M158.546 7.53831C158.546 6.62366 157.798 5.88196 156.877 5.88196C155.955 5.88196 155.208 6.62366 155.208 7.53831C155.208 8.06189 155.454 8.52808 155.835 8.83155L155.835 8.83205C156.149 9.21587 156.651 9.77639 156.903 10.2351C157.099 9.87871 157.348 9.52084 157.597 9.19865C157.586 9.2009 157.876 8.86524 157.876 8.86524C157.876 8.86499 157.875 8.86474 157.875 8.86424C158.281 8.56177 158.546 8.08161 158.546 7.53831Z"
            fill="#00B26B" />
        <g clip-path="url(#clip1_4913_7387)">
            <path
                d="M23 0C27.9706 0 32 4.02944 32 9V23C32 27.9706 27.9706 32 23 32H9C4.02944 32 0 27.9706 0 23V9C0 4.02944 4.02944 0 9 0H23ZM16.1025 4.87891C16.0386 4.84596 15.9248 4.85184 15.8594 4.88672C14.7392 5.48072 13.6094 6.05862 12.5088 6.6875C11.0397 7.5268 9.72257 8.56382 8.66602 9.89941C7.74235 11.067 7.13942 12.3584 7.14258 13.8896C7.15162 18.0759 7.14605 22.263 7.14648 26.4492C7.14648 26.5447 7.14332 26.6408 7.15234 26.7354C7.17451 26.9684 7.27112 27.0736 7.50488 27.0752C8.38503 27.0814 9.26557 27.0771 10.1709 27.0771V26.6436C10.1713 23.4953 10.1729 20.3472 10.1729 17.1992C10.3567 16.9671 10.5716 16.7585 10.8037 16.5645C11.5401 15.9491 12.411 15.5647 13.2656 15.1543C13.306 15.1351 13.3766 15.1529 13.4229 15.1748C13.6634 15.2896 13.9013 15.4115 14.1396 15.5312C14.7377 15.8311 15.3355 16.132 15.8584 16.5576C16.6732 17.2207 17.1208 18.0362 17.1074 19.1279C17.0762 21.7175 17.0967 24.3076 17.0967 26.8975C17.0967 26.9347 17.1015 26.9724 17.1045 27.0137C17.1445 27.016 17.1749 27.0195 17.2051 27.0195C17.7123 27.0191 18.2195 27.019 18.7266 27.0166C18.9955 27.0153 19.0476 26.9631 19.0479 26.6914C19.0487 25.6942 19.0479 24.6967 19.0479 23.6992C19.0483 22.0193 19.0404 20.3391 19.0537 18.6592C19.0608 17.7515 18.7729 16.9526 18.248 16.2285C17.7313 15.5156 17.0843 14.9373 16.3643 14.4385C15.4268 13.7891 14.3919 13.3149 13.3818 12.7969C13.3409 12.7758 13.2686 12.7796 13.2266 12.8018C12.5089 13.1822 11.7852 13.553 11.0801 13.9561C10.7658 14.1356 10.4619 14.3289 10.1719 14.5391V14.207C10.1717 13.7637 10.2592 13.3407 10.415 12.9287C10.7514 12.0386 11.3642 11.3575 12.0791 10.7598C13.2286 9.79921 14.5874 9.19888 15.9209 8.55859C15.9842 8.52838 16.0947 8.55716 16.167 8.5918C16.5421 8.77084 16.9123 8.96013 17.2842 9.14648C18.2177 9.61477 19.1513 10.0836 19.9678 10.748C21.2396 11.7832 21.9373 13.0567 21.917 14.7607C21.8681 18.8029 21.9002 22.8468 21.9004 26.8896C21.9004 26.9479 21.9091 27.0068 21.9141 27.0713C21.9763 27.0749 22.0232 27.0791 22.0703 27.0791C22.8623 27.0785 23.6545 27.0791 24.4463 27.0752C24.8661 27.0733 24.9468 26.9921 24.9473 26.5684C24.9486 25.0115 24.9471 23.4543 24.9473 21.8975C24.9471 19.2757 24.9342 16.6524 24.9551 14.0303C24.9662 12.6137 24.5174 11.3668 23.6982 10.2363C22.8914 9.12356 21.8818 8.22 20.7578 7.44141C19.2944 6.42782 17.6794 5.68754 16.1025 4.87891Z"
                fill="#00B26B" />
        </g>
    </g>
    <defs>
        <clipPath id="clip0_4913_7387">
            <rect width="211" height="32" fill="white" />
        </clipPath>
        <clipPath id="clip1_4913_7387">
            <rect width="32" height="32" rx="8" fill="white" />
        </clipPath>
    </defs>
</svg>
