<?xml version="1.0" encoding="utf-8"?><!-- Generator: Adobe Illustrator 16.0.0, SVG Export Plug-In . SVG Version: 6.00 Build 0)  -->
<!DOCTYPE svg PUBLIC "-//W3C//DTD SVG 1.0//EN"
    "http://www.w3.org/TR/2001/REC-SVG-20010904/DTD/svg10.dtd">
<svg version="1.0" id="Layer_1" xmlns="http://www.w3.org/2000/svg"
    xmlns:xlink="http://www.w3.org/1999/xlink" x="0px" y="0px" width="906.693px" height="128.224px"
    viewBox="0 0 906.693 128.224" enable-background="new 0 0 906.693 128.224" xml:space="preserve">
<g>
	<g>
		<linearGradient id="SVGID_1_" gradientUnits="userSpaceOnUse" x1="918.9897" y1="-89.4146"
            x2="59.8458" y2="101.3044">
			<stop offset="0" style="stop-color:#005E7F" />
            <stop offset="1" style="stop-color:#002C46" />
		</linearGradient>
        <path fill="url(#SVGID_1_)" d="M214.347,63.323l-22.622-31.512h-11.126v70.459h12.096V53.033
			c4.128,5.911,10.873,15.241,19.438,26.881l0.409,0.558h3.414l0.409-0.558c10.85-14.766,16.453-22.713,19.236-26.765v49.121h12.196
			V31.811h-11.027L214.347,63.323z" />
        <linearGradient id="SVGID_2_" gradientUnits="userSpaceOnUse" x1="925.4829" y1="-60.1699"
            x2="66.3356" y2="130.5498">
			<stop offset="0" style="stop-color:#005E7F" />
            <stop offset="1" style="stop-color:#002C46" />
		</linearGradient>
        <path fill="url(#SVGID_2_)" d="M299.298,50.007c-8.823,23.354-12.39,32.831-14.229,38.049c-1.828-5.041-5.433-14.165-15.84-38.11
			l-0.356-0.819h-13.042l22.76,53.143h0.625l-1.61,4.057c-1.145,3.015-0.699,2.271-2.104,4.233
			c-1.407,2.031-3.445,2.979-6.418,2.979c-2.83,0-5.371-0.544-8.001-1.714l-1.916-0.852v11.418l0.919,0.316
			c3.422,1.179,6.161,1.401,10.019,1.401c6.318,0,11.011-2.253,14.342-6.881c1.755-2.416,1.728-2.524,3.748-7.569l24.066-60.532
			h-12.628L299.298,50.007z" />
        <linearGradient id="SVGID_3_" gradientUnits="userSpaceOnUse" x1="925.144" y1="-61.6655"
            x2="66.0051" y2="129.0523">
			<stop offset="0" style="stop-color:#005E7F" />
            <stop offset="1" style="stop-color:#002C46" />
		</linearGradient>
        <path fill="url(#SVGID_3_)" d="M374.115,71.063c0,2.646,0,5.938-0.675,8.548c-1.826,7.684-8.245,12.089-17.619,12.089
			c-10.13,0-16.694-4.741-18.003-12.977c-0.256-1.877-0.396-4.597-0.396-7.66V31.811h-12.196V71.47c0,3.373,0.233,7.021,0.63,9.791
			c2.21,13.711,13.615,22.229,29.76,22.229c15.267,0,26.386-8.077,29.741-21.604c0.841-3.372,0.955-7.415,0.955-10.928V31.811
			h-12.197V71.063z" />
        <linearGradient id="SVGID_4_" gradientUnits="userSpaceOnUse" x1="930.5063" y1="-37.5103"
            x2="71.3692" y2="153.2072">
			<stop offset="0" style="stop-color:#005E7F" />
            <stop offset="1" style="stop-color:#002C46" />
		</linearGradient>
        <path fill="url(#SVGID_4_)" d="M413.671,91.441l28.949-34.552v-7.763h-44.892v11.279h1.362c11.987,0,20.054-0.145,25.963-0.252
			l-29.057,34.655v7.461h47.336V91.292h-1.362C429.735,91.292,419.568,91.346,413.671,91.441z" />
        <linearGradient id="SVGID_5_" gradientUnits="userSpaceOnUse" x1="930.3013" y1="-38.438"
            x2="71.1628" y2="152.2798">
			<stop offset="0" style="stop-color:#005E7F" />
            <stop offset="1" style="stop-color:#002C46" />
		</linearGradient>
        <path fill="url(#SVGID_5_)" d="M484.68,48.106c-6.531,0-12.714,2.713-16.767,7.151V24.476h-11.588v74.866l0.932,0.313
			c7.336,2.443,14.04,3.635,20.497,3.635c18.647,0,29.779-10.905,29.779-29.172C507.534,57.83,498.99,48.106,484.68,48.106z
			 M478.57,92.212c-4.938,0-8.079-0.816-10.454-1.704V74.321c0-3.526,0.762-6.615,2.078-8.459c3.034-4.118,7.461-6.576,11.839-6.576
			c9.032,0,13.609,5.196,13.609,15.443C495.642,89.94,484.948,92.212,478.57,92.212z" />
        <linearGradient id="SVGID_6_" gradientUnits="userSpaceOnUse" x1="936.4458" y1="-10.8384"
            x2="77.2733" y2="179.8869">
			<stop offset="0" style="stop-color:#005E7F" />
            <stop offset="1" style="stop-color:#002C46" />
		</linearGradient>
        <path fill="url(#SVGID_6_)" d="M546.416,47.8c-16.157,0-27.438,11.367-27.438,27.645c0,16.975,10.729,27.944,27.334,27.944
			c10.604,0,17.281-3.323,21.909-6.215l0.641-0.398V84.655l-2.516,1.623c-4.584,2.965-9.326,6.033-19.219,6.033
			c-8.999,0-15.499-5.222-16.283-12.859h40.13l0.123-1.224c0.093-0.966,0.106-3.142,0.106-4.923
			C571.203,57.334,561.935,47.8,546.416,47.8z M531.492,69.091c1.328-6.654,6.874-10.721,14.819-10.721
			c7.561,0,12.801,4.251,13.441,10.721H531.492z" />
        <linearGradient id="SVGID_7_" gradientUnits="userSpaceOnUse" x1="936.855" y1="-8.9463"
            x2="77.7015" y2="181.7748">
			<stop offset="0" style="stop-color:#005E7F" />
            <stop offset="1" style="stop-color:#002C46" />
		</linearGradient>
        <polygon fill="url(#SVGID_7_)" points="633.273,49.126 617.673,49.126 597.995,68.247 597.995,24.476 586.206,24.476
			586.206,102.27 598.099,102.27 598.099,80.073 620.105,102.27 635.936,102.27 607.545,73.342 		" />
        <linearGradient id="SVGID_8_" gradientUnits="userSpaceOnUse" x1="941.0747" y1="9.9629"
            x2="81.8571" y2="200.6982">
			<stop offset="0" style="stop-color:#005E7F" />
            <stop offset="1" style="stop-color:#002C46" />
		</linearGradient>
        <polygon fill="url(#SVGID_8_)"
            points="645.901,102.27 657.489,102.27 657.489,43.562 645.901,48.354 		" />
        <linearGradient id="SVGID_9_" gradientUnits="userSpaceOnUse" x1="943.3198" y1="20.1641"
            x2="84.1594" y2="210.8867">
			<stop offset="0" style="stop-color:#005E7F" />
            <stop offset="1" style="stop-color:#002C46" />
		</linearGradient>
        <path fill="url(#SVGID_9_)" d="M698.789,71.216l-5.834-2.248c-5.761-2.094-6.334-3.035-6.334-4.833c0-2.4,0.944-5.155,8.314-5.155
			c5.861,0,10.074,1.414,14.598,3.537l1.942,0.911V51.184l-0.87-0.336c-4.916-1.898-10.553-2.944-15.874-2.944
			c-12.774,0-20.103,5.694-20.103,15.622c0,9.391,6.845,13.13,12.823,15.342l6.312,2.239c6.194,2.203,7.754,3.06,7.754,5.335
			c0,2.733-1.047,5.87-9.229,5.87c-6.002,0-11.097-1.469-17.043-4.909l-2.042-1.183v12.56l0.734,0.381
			c5.124,2.661,11.605,4.129,18.246,4.129c13.618,0,21.431-5.992,21.431-16.439C713.615,78.351,708.831,75.037,698.789,71.216z" />
        <linearGradient id="SVGID_10_" gradientUnits="userSpaceOnUse" x1="943.6636" y1="21.7285"
            x2="84.5186" y2="212.4477">
			<stop offset="0" style="stop-color:#005E7F" />
            <stop offset="1" style="stop-color:#002C46" />
		</linearGradient>
        <polygon fill="url(#SVGID_10_)" points="743.562,49.329 743.562,30.028 731.571,34.904 731.571,102.27 743.562,102.27
			743.562,59.489 756.979,59.489 754.472,49.329 		" />
        <linearGradient id="SVGID_11_" gradientUnits="userSpaceOnUse" x1="948.3101" y1="42.6553"
            x2="89.1531" y2="233.3771">
			<stop offset="0" style="stop-color:#005E7F" />
            <stop offset="1" style="stop-color:#002C46" />
		</linearGradient>
        <path fill="url(#SVGID_11_)" d="M807.506,53.878c-4.618-3.833-10.107-5.771-16.358-5.771c-7.238,0-13.566,2.707-18.809,8.058
			c-5.117,5.333-7.712,11.888-7.712,19.48c0,7.556,2.591,14.138,7.722,19.595c5.232,5.34,11.561,8.05,18.799,8.05
			c6.205,0,11.694-1.972,16.358-5.865v3.926h11.996V49.728l-11.996,2.504V53.878z M802.582,87.548
			c-2.978,3.159-6.619,4.764-10.824,4.764c-4.203,0-7.844-1.604-10.808-4.75c-3.051-3.336-4.532-7.234-4.532-11.917
			c0-4.609,1.481-8.476,4.532-11.812c2.944-3.22,6.581-4.852,10.808-4.852c4.231,0,7.869,1.632,10.811,4.852
			c3.051,3.336,4.533,7.198,4.533,11.812C807.101,80.327,805.619,84.226,802.582,87.548z" />
        <linearGradient id="SVGID_12_" gradientUnits="userSpaceOnUse" x1="951.0464" y1="54.9741"
            x2="91.8622" y2="245.702">
			<stop offset="0" style="stop-color:#005E7F" />
            <stop offset="1" style="stop-color:#002C46" />
		</linearGradient>
        <path fill="url(#SVGID_12_)" d="M879.676,56.879c-3.069-5.806-8.979-8.875-17.096-8.875c-6.79,0-13.455,2.879-17.582,7.327v-6.205
			h-11.588v53.143h11.79V73.098c0-3.019,0.678-5.535,2.03-7.517c2.892-4.535,8.506-6.601,12.499-6.601
			c4.338,0,7.334,1.38,8.92,4.131c1.07,1.757,1.635,4.895,1.635,9.07v30.088h11.688V69.738
			C881.972,66.5,881.672,60.521,879.676,56.879z" />
	</g>
    <g>
		<linearGradient id="SVGID_13_" gradientUnits="userSpaceOnUse" x1="67.9028" y1="5.6245"
            x2="66.5901" y2="70.6083">
			<stop offset="0" style="stop-color:#F5C31A" />
            <stop offset="0.9624" style="stop-color:#FAF073" />
		</linearGradient>
        <circle fill="url(#SVGID_13_)" cx="67.189" cy="40.938" r="30.313" />
        <linearGradient id="SVGID_14_" gradientUnits="userSpaceOnUse" x1="66.8003" y1="14.0371"
            x2="66.8003" y2="112.1392">
			<stop offset="0.2097" style="stop-color:#5CA2CA" />
            <stop offset="1" style="stop-color:#126493" />
		</linearGradient>
        <path fill="url(#SVGID_14_)" d="M85.343,65.214c-1.88-1.229-4.213-2.948-4.213-2.948c-7.504-7.386-8.659-15.493-9.409-20.524
			c-1.157-7.753,9.531-9.414,9.531-9.414c-2.179-3.275-6.051-2.569-6.051-2.569c-3.542-4.335-10.683-1.363-15.207,0.453
			c-4.522,1.814-7.52-1.464-7.52-1.464c-1.365,9.275,9.428,8.972,9.428,8.972s-0.922,3.818-3.172,14.544
			c-1.652,7.882-8.36,10.434-10.474,12.347c5.712,7.018,14.841,17.275,19.409,25.669c3.548-6.522,8.086-13.072,12.612-18.964
			C80.075,71.356,85.343,65.214,85.343,65.214z" />
        <linearGradient id="SVGID_15_" gradientUnits="userSpaceOnUse" x1="-12.0327" y1="77.4277"
            x2="74.1923" y2="132.875">
			<stop offset="0" style="stop-color:#5CA2CA" />
            <stop offset="1" style="stop-color:#015F8F" />
		</linearGradient>
        <path fill="url(#SVGID_15_)" d="M9.198,84.778c-0.025,0.05-0.038,0.108-0.112,0.117c-3.575,0.381-4.859,0.571-4.859,0.571
			c8.521,19.563,25.378,23.941,25.378,23.941c-0.822,0.223-7.555,0.952-7.555,0.952c3.146,3.708,7.46,5.956,7.416,6.02h-0.009
			c0.002,0.005,0.003,0.005,0.007,0.005c6.316,4.206,13.35,7.429,20.883,9.45c5.555,1.491,11.39,2.303,17.403,2.389v-11.775
			C43.914,114.485,22.961,102.515,9.198,84.778z" />
        <linearGradient id="SVGID_16_" gradientUnits="userSpaceOnUse" x1="25.4399" y1="76.1328"
            x2="68.3959" y2="128.1365">
			<stop offset="0" style="stop-color:#5CA2CA" />
            <stop offset="1" style="stop-color:#126493" />
		</linearGradient>
        <path fill="url(#SVGID_16_)" d="M60.679,101.2c-27.714-9.587-47.604-35.66-47.604-66.347c0-0.67,0.032-1.332,0.051-1.996
			c-1.575-1.404-4.631-2.289-4.631-2.289C2.503,40.2,5.848,52.006,5.848,52.006c-3.942-1.112-5.646-2.571-5.646-2.571
			c-1.848,21.872,9.563,34.179,8.995,35.344c13.764,17.736,34.716,29.707,58.552,31.67v-0.113
			C66.214,111.484,63.667,106.304,60.679,101.2z" />
        <linearGradient id="SVGID_17_" gradientUnits="userSpaceOnUse" x1="33.2217" y1="24.2075"
            x2="82.5397" y2="129.0499">
			<stop offset="0" style="stop-color:#5CA2CA" />
            <stop offset="1" style="stop-color:#126493" />
		</linearGradient>
        <path fill="url(#SVGID_17_)" d="M60.679,101.2C53.6,89.111,43.989,77.48,39.083,71.847c-1.098-1.106-2.138-2.275-3.114-3.49
			c-0.016-0.021-0.028-0.032-0.028-0.032h0.005c-5.853-7.328-9.343-16.584-9.343-26.644c0-18.496,11.812-34.219,28.361-40.306
			C25.121,5.928,13.138,32.866,13.138,32.866c-0.003-0.003-0.008-0.005-0.012-0.009c-0.019,0.664-0.051,1.326-0.051,1.996
			C13.076,65.54,32.965,91.613,60.679,101.2z" />

        <linearGradient id="SVGID_18_" gradientUnits="userSpaceOnUse" x1="505.3999" y1="77.4092"
            x2="591.6249" y2="132.8565" gradientTransform="matrix(-1 0 0 1 652.7744 0)">
			<stop offset="0" style="stop-color:#5CA2CA" />
            <stop offset="1" style="stop-color:#015F8F" />
		</linearGradient>
        <path fill="url(#SVGID_18_)" d="M126.145,84.76c0.025,0.05,0.039,0.109,0.111,0.118c3.576,0.381,4.86,0.571,4.86,0.571
			c-8.521,19.563-25.38,23.941-25.38,23.941c0.824,0.222,7.556,0.952,7.556,0.952c-3.146,3.707-7.459,5.955-7.416,6.019h0.009
			c-0.002,0.005-0.004,0.005-0.007,0.005c-6.316,4.206-13.35,7.429-20.884,9.451c-5.554,1.491-11.389,2.302-17.402,2.389V116.43
			C91.429,114.467,112.38,102.496,126.145,84.76z" />

        <linearGradient id="SVGID_19_" gradientUnits="userSpaceOnUse" x1="542.8716" y1="76.1143"
            x2="585.8275" y2="128.1179" gradientTransform="matrix(-1 0 0 1 652.7744 0)">
			<stop offset="0" style="stop-color:#5CA2CA" />
            <stop offset="1" style="stop-color:#126493" />
		</linearGradient>
        <path fill="url(#SVGID_19_)" d="M74.664,101.182c27.714-9.587,47.602-35.659,47.602-66.347c0-0.67-0.032-1.332-0.05-1.996
			c1.575-1.404,4.631-2.289,4.631-2.289c5.991,9.632,2.647,21.437,2.647,21.437c3.942-1.111,5.644-2.571,5.644-2.571
			c1.85,21.873-9.563,34.178-8.994,35.343c-13.765,17.736-34.716,29.707-58.552,31.67v-0.113
			C69.128,111.467,71.675,106.285,74.664,101.182z" />

        <linearGradient id="SVGID_20_" gradientUnits="userSpaceOnUse" x1="550.6548" y1="24.1895"
            x2="599.9728" y2="129.0318" gradientTransform="matrix(-1 0 0 1 652.7744 0)">
			<stop offset="0" style="stop-color:#5CA2CA" />
            <stop offset="1" style="stop-color:#126493" />
		</linearGradient>
        <path fill="url(#SVGID_20_)" d="M74.664,101.182c7.079-12.089,16.69-23.72,21.596-29.354c1.097-1.105,2.137-2.275,3.114-3.49
			c0.016-0.021,0.028-0.031,0.028-0.031h-0.006c5.853-7.329,9.343-16.584,9.343-26.645c0-18.496-11.812-34.22-28.362-40.306
			c29.844,4.553,41.826,31.492,41.826,31.492c0.004-0.003,0.008-0.005,0.013-0.009c0.018,0.664,0.05,1.326,0.05,1.996
			C122.266,65.522,102.377,91.595,74.664,101.182z" />
	</g>
    <linearGradient id="SVGID_21_" gradientUnits="userSpaceOnUse" x1="932.1909" y1="-30.0464"
        x2="72.9802" y2="160.6874">
		<stop offset="0" style="stop-color:#005E7F" />
        <stop offset="1" style="stop-color:#002C46" />
	</linearGradient>
    <path fill="url(#SVGID_21_)" d="M658.33,30.206c0-3.665-2.972-6.637-6.636-6.637c-3.665,0-6.636,2.972-6.636,6.637
		c0,2.098,0.975,3.966,2.492,5.182c0,0-0.002,0.001-0.002,0.002c1.251,1.538,3.248,3.784,4.25,5.622
		c0.779-1.428,1.768-2.862,2.76-4.153c-0.045,0.009,1.11-1.336,1.11-1.336c-0.002-0.001-0.004-0.002-0.004-0.004
		C657.278,34.307,658.33,32.383,658.33,30.206z" />
    <g>
		<linearGradient id="SVGID_22_" gradientUnits="userSpaceOnUse" x1="944.3003" y1="24.6016"
            x2="85.1514" y2="215.3216">
			<stop offset="0" style="stop-color:#005E7F" />
            <stop offset="1" style="stop-color:#002C46" />
		</linearGradient>
        <path fill="url(#SVGID_22_)" d="M889.322,34.913c0-4.959,3.887-8.528,8.607-8.528c4.8,0,8.764,3.569,8.764,8.528
			c0,4.878-3.964,8.487-8.764,8.487C893.208,43.4,889.322,39.791,889.322,34.913z M905.107,34.913c0-4.324-3.053-7.139-7.178-7.139
			c-4.046,0-6.98,2.815-6.98,7.139c0,4.283,2.935,7.098,6.98,7.098C902.054,42.011,905.107,39.196,905.107,34.913z M901.816,39.552
			h-1.906l-1.546-2.34c-0.158,0.041-0.355,0.041-0.555,0.041h-1.19v2.299h-1.744v-9.4h2.894c2.737,0,4.048,1.666,4.048,3.57
			c0,1.269-0.637,2.46-1.865,3.054L901.816,39.552z M897.768,35.864c1.63,0,2.303-0.793,2.303-2.102
			c0-1.269-0.673-2.142-2.303-2.142h-1.149v4.244H897.768z" />
	</g>
</g>
</svg>
