<svg width="211" height="32" viewBox="0 0 211 32" fill="none" xmlns="http://www.w3.org/2000/svg">
    <path
        d="M53.9004 15.8031L48.2118 7.93884H45.414V25.5228H48.4557V13.2351C49.4937 14.7102 51.1899 17.0387 53.3436 19.9436L53.4465 20.0828H54.305L54.4078 19.9436C57.1362 16.2585 58.5452 14.2753 59.245 13.264V25.5228H62.3118V7.93884H59.5389L53.9004 15.8031Z"
        fill="white" />
    <path
        d="M74.2625 12.4799C72.0438 18.3082 71.1468 20.6733 70.6844 21.9755C70.2247 20.7175 69.3182 18.4404 66.7012 12.4647L66.6117 12.2603H63.3321L69.0554 25.5228H69.2126L68.8077 26.5353C68.5198 27.2877 68.6319 27.102 68.2786 27.5917C67.9248 28.0985 67.4123 28.3351 66.6647 28.3351C65.9531 28.3351 65.3141 28.1994 64.6528 27.9074L64.171 27.6947V30.5443L64.4021 30.6231C65.2626 30.9174 65.9513 30.9728 66.9215 30.9728C68.5102 30.9728 69.6903 30.4105 70.528 29.2555C70.9693 28.6526 70.9625 28.6256 71.4705 27.3666L77.5222 12.26H74.3467L74.2625 12.4799Z"
        fill="white" />
    <path
        d="M92.0762 17.7347C92.0762 18.395 92.0762 19.2166 91.9065 19.868C91.4473 21.7856 89.8331 22.8849 87.4759 22.8849C84.9286 22.8849 83.278 21.7018 82.9488 19.6464C82.8845 19.1779 82.8493 18.4991 82.8493 17.7347V7.93884H79.7824V17.8363C79.7824 18.678 79.841 19.5885 79.9408 20.2797C80.4966 23.7015 83.3645 25.8273 87.4244 25.8273C91.2635 25.8273 94.0595 23.8116 94.9031 20.4357C95.1146 19.5942 95.1433 18.5852 95.1433 17.7085V7.93884H92.0762V17.7347Z"
        fill="white" />
    <path
        d="M101.023 22.8203L108.303 14.1974V12.26H97.014V15.0748H97.3565C100.371 15.0748 102.399 15.0386 103.885 15.0119L96.5784 23.6606V25.5226H108.482V22.7831H108.139C105.063 22.7831 102.506 22.7966 101.023 22.8203Z"
        fill="white" />
    <path
        d="M117.879 12.0055C116.237 12.0055 114.682 12.6825 113.663 13.7901V6.10828H110.749V24.7921L110.983 24.8702C112.828 25.4799 114.514 25.7774 116.138 25.7774C120.827 25.7774 123.626 23.0559 123.626 18.4971C123.626 14.4322 121.478 12.0055 117.879 12.0055ZM116.343 23.0127C115.101 23.0127 114.311 22.8091 113.714 22.5874V18.5478C113.714 17.6678 113.906 16.8969 114.237 16.4367C114.999 15.409 116.113 14.7956 117.214 14.7956C119.485 14.7956 120.636 16.0923 120.636 18.6496C120.636 22.4457 117.947 23.0127 116.343 23.0127Z"
        fill="white" />
    <path
        d="M132.404 11.9291C128.341 11.9291 125.504 14.7659 125.504 18.8283C125.504 23.0646 128.202 25.802 132.377 25.802C135.044 25.802 136.723 24.9728 137.887 24.251L138.048 24.1517V21.1267L137.415 21.5318C136.263 22.2717 135.07 23.0374 132.582 23.0374C130.319 23.0374 128.685 21.7342 128.488 19.8283H138.579L138.61 19.5228C138.633 19.2817 138.637 18.7387 138.637 18.2942C138.637 14.3084 136.306 11.9291 132.404 11.9291ZM128.651 17.2425C128.985 15.5819 130.379 14.567 132.377 14.567C134.278 14.567 135.596 15.6279 135.757 17.2425H128.651Z"
        fill="white" />
    <path
        d="M153.245 12.26H149.322L144.374 17.0319V6.10828H141.409V25.5228H144.4V19.9832L149.934 25.5228H153.915L146.775 18.3034L153.245 12.26Z"
        fill="white" />
    <path d="M155.42 25.5228H158.334V10.8715L155.42 12.0674V25.5228Z" fill="white" />
    <path
        d="M167.72 17.7729L166.253 17.2119C164.804 16.6893 164.66 16.4545 164.66 16.0057C164.66 15.4068 164.897 14.7192 166.751 14.7192C168.225 14.7192 169.284 15.0721 170.422 15.6019L170.91 15.8293V12.7736L170.691 12.6898C169.455 12.2161 168.037 11.9551 166.699 11.9551C163.487 11.9551 161.644 13.3761 161.644 15.8538C161.644 18.1974 163.365 19.1305 164.869 19.6826L166.456 20.2413C168.014 20.7911 168.406 21.005 168.406 21.5727C168.406 22.2548 168.143 23.0377 166.085 23.0377C164.576 23.0377 163.295 22.6711 161.799 21.8126L161.286 21.5173V24.6519L161.47 24.7469C162.759 25.411 164.389 25.7774 166.059 25.7774C169.483 25.7774 171.448 24.282 171.448 21.6748C171.448 19.5535 170.245 18.7265 167.72 17.7729Z"
        fill="white" />
    <path
        d="M177.979 12.3107V7.4939L174.963 8.71077V25.5228H177.979V14.8463H181.352L180.722 12.3107H177.979Z"
        fill="white" />
    <path
        d="M193.058 13.446C191.897 12.4894 190.517 12.0057 188.945 12.0057C187.125 12.0057 185.533 12.6813 184.215 14.0167C182.928 15.3476 182.276 16.9835 182.276 18.8782C182.276 20.7639 182.927 22.4065 184.217 23.7684C185.533 25.1011 187.125 25.7774 188.945 25.7774C190.505 25.7774 191.885 25.2852 193.058 24.3137V25.2935H196.075V12.4103L193.058 13.0352V13.446ZM191.82 21.8488C191.071 22.6371 190.155 23.0377 189.098 23.0377C188.041 23.0377 187.126 22.6374 186.38 21.8523C185.613 21.0197 185.241 20.0469 185.241 18.8782C185.241 17.728 185.613 16.7629 186.38 15.9304C187.121 15.1268 188.035 14.7195 189.098 14.7195C190.162 14.7195 191.077 15.1268 191.817 15.9304C192.584 16.7629 192.957 17.7267 192.957 18.8782C192.956 20.0467 192.584 21.0197 191.82 21.8488Z"
        fill="white" />
    <path
        d="M210.206 14.1949C209.434 12.7459 207.948 11.98 205.907 11.98C204.2 11.98 202.524 12.6985 201.486 13.8085V12.26H198.572V25.5225H201.537V18.2425C201.537 17.4891 201.707 16.8612 202.047 16.3666C202.774 15.2348 204.186 14.7192 205.19 14.7192C206.281 14.7192 207.035 15.0636 207.433 15.7501C207.702 16.1886 207.844 16.9717 207.844 18.0137V25.5225H210.784V17.404C210.784 16.5959 210.708 15.1038 210.206 14.1949Z"
        fill="white" />
    <path
        d="M21.4606 16.2749C20.9879 15.9682 20.4012 15.5392 20.4012 15.5392C18.5142 13.696 18.2238 11.6727 18.0352 10.4172C17.7442 8.48233 20.4319 8.0678 20.4319 8.0678C19.8839 7.25048 18.9103 7.42668 18.9103 7.42668C18.0196 6.34482 16.2239 7.08652 15.0863 7.53973C13.9491 7.99244 13.1953 7.17437 13.1953 7.17437C12.852 9.48907 15.5661 9.41345 15.5661 9.41345C15.5661 9.41345 15.3342 10.3663 14.7684 13.0431C14.353 15.0102 12.6662 15.647 12.1346 16.1245C13.5709 17.8759 15.8665 20.4357 17.0152 22.5305C17.9074 20.9028 19.0486 19.2682 20.1867 17.7978C20.1359 17.8078 21.4606 16.2749 21.4606 16.2749Z"
        fill="url(#paint0_linear_3281_7278)" />
    <path
        d="M21.4606 16.2749C20.9879 15.9682 20.4012 15.5392 20.4012 15.5392C18.5142 13.696 18.2238 11.6727 18.0352 10.4172C17.7442 8.48233 20.4319 8.0678 20.4319 8.0678C19.8839 7.25048 18.9103 7.42668 18.9103 7.42668C18.0196 6.34482 16.2239 7.08652 15.0863 7.53973C13.9491 7.99244 13.1953 7.17437 13.1953 7.17437C12.852 9.48907 15.5661 9.41345 15.5661 9.41345C15.5661 9.41345 15.3342 10.3663 14.7684 13.0431C14.353 15.0102 12.6662 15.647 12.1346 16.1245C13.5709 17.8759 15.8665 20.4357 17.0152 22.5305C17.9074 20.9028 19.0486 19.2682 20.1867 17.7978C20.1359 17.8078 21.4606 16.2749 21.4606 16.2749Z"
        fill="white" fill-opacity="0.96" />
    <path
        d="M2.31295 21.1575C2.30666 21.1699 2.3034 21.1844 2.28479 21.1867C1.38581 21.2818 1.06293 21.3292 1.06293 21.3292C3.20565 26.2114 7.44456 27.304 7.44456 27.304C7.23786 27.3596 5.54476 27.5415 5.54476 27.5415C6.33586 28.4669 7.42067 29.0279 7.40961 29.0439H7.40735C7.40785 29.0452 7.4081 29.0452 7.40911 29.0452C8.99735 30.0948 10.7661 30.8992 12.6604 31.4035C14.0573 31.7756 15.5246 31.9783 17.0366 31.9997V29.0611C11.0428 28.5712 5.77384 25.584 2.31295 21.1575Z"
        fill="url(#paint1_linear_3281_7278)" fill-opacity="0.7" />
    <path
        d="M2.31295 21.1575C2.30666 21.1699 2.3034 21.1844 2.28479 21.1867C1.38581 21.2818 1.06293 21.3292 1.06293 21.3292C3.20565 26.2114 7.44456 27.304 7.44456 27.304C7.23786 27.3596 5.54476 27.5415 5.54476 27.5415C6.33586 28.4669 7.42067 29.0279 7.40961 29.0439H7.40735C7.40785 29.0452 7.4081 29.0452 7.40911 29.0452C8.99735 30.0948 10.7661 30.8992 12.6604 31.4035C14.0573 31.7756 15.5246 31.9783 17.0366 31.9997V29.0611C11.0428 28.5712 5.77384 25.584 2.31295 21.1575Z"
        fill="white" fill-opacity="0.96" />
    <path
        d="M15.2585 25.2558C8.28948 22.8633 3.28788 16.3564 3.28788 8.69804C3.28788 8.53083 3.29592 8.36562 3.3007 8.19991C2.90465 7.84953 2.13617 7.62866 2.13617 7.62866C0.629406 10.0325 1.47055 12.9788 1.47055 12.9788C0.479282 12.7013 0.0507889 12.3372 0.0507889 12.3372C-0.413915 17.7956 2.45553 20.867 2.3127 21.1577C5.77384 25.584 11.0425 28.5715 17.0364 29.0614V29.0332C16.6504 27.8223 16.0099 26.5296 15.2585 25.2558Z"
        fill="url(#paint2_linear_3281_7278)" fill-opacity="0.4" />
    <path
        d="M15.2585 25.2558C8.28948 22.8633 3.28788 16.3564 3.28788 8.69804C3.28788 8.53083 3.29592 8.36562 3.3007 8.19991C2.90465 7.84953 2.13617 7.62866 2.13617 7.62866C0.629406 10.0325 1.47055 12.9788 1.47055 12.9788C0.479282 12.7013 0.0507889 12.3372 0.0507889 12.3372C-0.413915 17.7956 2.45553 20.867 2.3127 21.1577C5.77384 25.584 11.0425 28.5715 17.0364 29.0614V29.0332C16.6504 27.8223 16.0099 26.5296 15.2585 25.2558Z"
        fill="white" fill-opacity="0.8" />
    <path
        d="M15.2586 25.2558C13.4785 22.2388 11.0616 19.3362 9.82796 17.9304C9.55185 17.6543 9.29033 17.3626 9.0449 17.0594C9.04088 17.0541 9.03786 17.0514 9.03786 17.0514H9.03912C7.5673 15.2226 6.6897 12.9126 6.6897 10.402C6.6897 5.78611 9.65998 1.86223 13.8214 0.34314C6.31703 1.4794 3.30374 8.20214 3.30374 8.20214C3.30299 8.20139 3.30173 8.20089 3.30073 8.19989C3.29595 8.3656 3.2879 8.53081 3.2879 8.69802C3.28815 16.3564 8.28951 22.8632 15.2586 25.2558Z"
        fill="url(#paint3_linear_3281_7278)" fill-opacity="0.7" />
    <path
        d="M15.2586 25.2558C13.4785 22.2388 11.0616 19.3362 9.82796 17.9304C9.55185 17.6543 9.29033 17.3626 9.0449 17.0594C9.04088 17.0541 9.03786 17.0514 9.03786 17.0514H9.03912C7.5673 15.2226 6.6897 12.9126 6.6897 10.402C6.6897 5.78611 9.65998 1.86223 13.8214 0.34314C6.31703 1.4794 3.30374 8.20214 3.30374 8.20214C3.30299 8.20139 3.30173 8.20089 3.30073 8.19989C3.29595 8.3656 3.2879 8.53081 3.2879 8.69802C3.28815 16.3564 8.28951 22.8632 15.2586 25.2558Z"
        fill="white" fill-opacity="0.96" />
    <path
        d="M31.7208 21.153C31.7271 21.1654 31.7306 21.1802 31.7487 21.1824C32.648 21.2775 32.9708 21.3249 32.9708 21.3249C30.8281 26.2071 26.5887 27.2997 26.5887 27.2997C26.7959 27.3551 28.4888 27.5373 28.4888 27.5373C27.6977 28.4624 26.6131 29.0234 26.6239 29.0394H26.6262C26.6257 29.0406 26.6252 29.0406 26.6244 29.0406C25.0362 30.0903 23.2674 30.8947 21.3729 31.3993C19.9762 31.7714 18.5089 31.9738 16.9969 31.9955V29.0566C22.991 28.5667 28.2594 25.5792 31.7208 21.153Z"
        fill="url(#paint4_linear_3281_7278)" fill-opacity="0.7" />
    <path
        d="M31.7208 21.153C31.7271 21.1654 31.7306 21.1802 31.7487 21.1824C32.648 21.2775 32.9708 21.3249 32.9708 21.3249C30.8281 26.2071 26.5887 27.2997 26.5887 27.2997C26.7959 27.3551 28.4888 27.5373 28.4888 27.5373C27.6977 28.4624 26.6131 29.0234 26.6239 29.0394H26.6262C26.6257 29.0406 26.6252 29.0406 26.6244 29.0406C25.0362 30.0903 23.2674 30.8947 21.3729 31.3993C19.9762 31.7714 18.5089 31.9738 16.9969 31.9955V29.0566C22.991 28.5667 28.2594 25.5792 31.7208 21.153Z"
        fill="white" fill-opacity="0.96" />
    <path
        d="M18.7752 25.2513C25.7443 22.8587 30.7454 16.3521 30.7454 8.69352C30.7454 8.52632 30.7373 8.36111 30.7328 8.1954C31.1289 7.84501 31.8973 7.62415 31.8973 7.62415C33.4039 10.0279 32.563 12.974 32.563 12.974C33.5542 12.6968 33.9822 12.3324 33.9822 12.3324C34.4474 17.7911 31.5775 20.862 31.7206 21.1527C28.2592 25.579 22.9908 28.5665 16.9969 29.0564V29.0282C17.3831 27.8181 18.0236 26.5248 18.7752 25.2513Z"
        fill="url(#paint5_linear_3281_7278)" fill-opacity="0.4" />
    <path
        d="M18.7752 25.2513C25.7443 22.8587 30.7454 16.3521 30.7454 8.69352C30.7454 8.52632 30.7373 8.36111 30.7328 8.1954C31.1289 7.84501 31.8973 7.62415 31.8973 7.62415C33.4039 10.0279 32.563 12.974 32.563 12.974C33.5542 12.6968 33.9822 12.3324 33.9822 12.3324C34.4474 17.7911 31.5775 20.862 31.7206 21.1527C28.2592 25.579 22.9908 28.5665 16.9969 29.0564V29.0282C17.3831 27.8181 18.0236 26.5248 18.7752 25.2513Z"
        fill="white" fill-opacity="0.8" />
    <path
        d="M18.7753 25.2513C20.5554 22.2343 22.9722 19.3316 24.2059 17.9256C24.4817 17.6498 24.7432 17.3578 24.9889 17.0546C24.9929 17.0494 24.996 17.0469 24.996 17.0469H24.9945C26.4663 15.2178 27.3439 12.9081 27.3439 10.3973C27.3439 5.78135 24.3736 1.85722 20.2119 0.338379C27.7165 1.47464 30.7296 8.19763 30.7296 8.19763C30.7306 8.19688 30.7316 8.19638 30.7329 8.19538C30.7374 8.36109 30.7454 8.5263 30.7454 8.69351C30.7454 16.3519 25.7441 22.8587 18.7753 25.2513Z"
        fill="url(#paint6_linear_3281_7278)" fill-opacity="0.7" />
    <path
        d="M18.7753 25.2513C20.5554 22.2343 22.9722 19.3316 24.2059 17.9256C24.4817 17.6498 24.7432 17.3578 24.9889 17.0546C24.9929 17.0494 24.996 17.0469 24.996 17.0469H24.9945C26.4663 15.2178 27.3439 12.9081 27.3439 10.3973C27.3439 5.78135 24.3736 1.85722 20.2119 0.338379C27.7165 1.47464 30.7296 8.19763 30.7296 8.19763C30.7306 8.19688 30.7316 8.19638 30.7329 8.19538C30.7374 8.36109 30.7454 8.5263 30.7454 8.69351C30.7454 16.3519 25.7441 22.8587 18.7753 25.2513Z"
        fill="white" fill-opacity="0.96" />
    <path
        d="M158.546 7.53831C158.546 6.62366 157.798 5.88196 156.877 5.88196C155.955 5.88196 155.208 6.62366 155.208 7.53831C155.208 8.06189 155.454 8.52808 155.835 8.83155L155.835 8.83205C156.149 9.21587 156.651 9.77639 156.903 10.2351C157.099 9.87871 157.348 9.52084 157.597 9.19865C157.586 9.2009 157.876 8.86524 157.876 8.86524C157.876 8.86499 157.875 8.86474 157.875 8.86424C158.281 8.56177 158.546 8.08161 158.546 7.53831Z"
        fill="white" />
    <defs>
        <linearGradient id="paint0_linear_3281_7278" x1="16.7978" y1="3.50307" x2="16.7978"
            y2="27.9857" gradientUnits="userSpaceOnUse">
            <stop offset="0.2097" stop-color="#5CA2CA" />
            <stop offset="1" stop-color="#126493" />
        </linearGradient>
        <linearGradient id="paint1_linear_3281_7278" x1="10.2761" y1="23.6375" x2="8.20676"
            y2="37.2292" gradientUnits="userSpaceOnUse">
            <stop stop-color="#5CA2CA" />
            <stop offset="1" stop-color="#126493" />
        </linearGradient>
        <linearGradient id="paint2_linear_3281_7278" x1="6.39719" y1="19" x2="17.1018" y2="32.0579"
            gradientUnits="userSpaceOnUse">
            <stop stop-color="#5CA2CA" />
            <stop offset="1" stop-color="#126493" />
        </linearGradient>
        <linearGradient id="paint3_linear_3281_7278" x1="10.1923" y1="6.04149" x2="-2.05557"
            y2="32.2781" gradientUnits="userSpaceOnUse">
            <stop stop-color="#5CA2CA" />
            <stop offset="1" stop-color="#126493" />
        </linearGradient>
        <linearGradient id="paint4_linear_3281_7278" x1="26.2102" y1="23.633" x2="24.1408"
            y2="37.2251" gradientUnits="userSpaceOnUse">
            <stop stop-color="#5CA2CA" />
            <stop offset="1" stop-color="#126493" />
        </linearGradient>
        <linearGradient id="paint5_linear_3281_7278" x1="27.6365" y1="18.9953" x2="16.9319"
            y2="32.0532" gradientUnits="userSpaceOnUse">
            <stop stop-color="#5CA2CA" />
            <stop offset="1" stop-color="#126493" />
        </linearGradient>
        <linearGradient id="paint6_linear_3281_7278" x1="25.6793" y1="6.03678" x2="13.431"
            y2="32.2731" gradientUnits="userSpaceOnUse">
            <stop stop-color="#5CA2CA" />
            <stop offset="1" stop-color="#126493" />
        </linearGradient>
    </defs>
</svg>
