<svg width="20" height="20" viewBox="0 0 20 20" fill="none" xmlns="http://www.w3.org/2000/svg">
<path fill-rule="evenodd" clip-rule="evenodd" d="M14.7254 9.33709C15.0915 9.7032 15.0915 10.2968 14.7254 10.6629L11.6004 13.7879C11.2343 14.154 10.6407 14.154 10.2746 13.7879C9.90847 13.4218 9.90847 12.8282 10.2746 12.4621L11.7992 10.9375L2.1875 10.9375C1.66973 10.9375 1.25 10.5178 1.25 10C1.25 9.48223 1.66973 9.0625 2.1875 9.0625L11.7992 9.0625L10.2746 7.53791C9.90847 7.1718 9.90847 6.5782 10.2746 6.21209C10.6407 5.84597 11.2343 5.84597 11.6004 6.21209L14.7254 9.33709ZM5 14.6875C5 14.1697 5.41973 13.75 5.9375 13.75C6.45527 13.75 6.875 14.1697 6.875 14.6875L6.875 15C6.875 16.0355 7.71447 16.875 8.75 16.875L15 16.875C16.0355 16.875 16.875 16.0355 16.875 15L16.875 5C16.875 3.96447 16.0355 3.125 15 3.125L8.75 3.125C7.71447 3.125 6.875 3.96447 6.875 5L6.875 5.3125C6.875 5.83027 6.45527 6.25 5.9375 6.25C5.41973 6.25 5 5.83027 5 5.3125L5 5C5 2.92893 6.67893 1.25 8.75 1.25L15 1.25C17.0711 1.25 18.75 2.92893 18.75 5L18.75 15C18.75 17.0711 17.0711 18.75 15 18.75L8.75 18.75C6.67893 18.75 5 17.0711 5 15L5 14.6875Z" fill="black"/>
</svg>
