<svg width="20" height="20" viewBox="0 0 20 20" fill="none" xmlns="http://www.w3.org/2000/svg">
<g clip-path="url(#clip0_3707_19042)">
<path fill-rule="evenodd" clip-rule="evenodd" d="M14.9943 0.834053C14.9371 0.319453 14.4736 -0.0513611 13.959 0.00581667C13.4444 0.0629945 13.0736 0.526512 13.1307 1.04111L13.9873 8.75008H12.9031C10.8543 8.75008 9.28419 10.5607 8.90792 12.5746C8.58225 14.3177 7.96487 15.8 7.40705 16.8751C6.79236 18.0598 6.25 18.7501 6.25 18.7501H8.50427H16.875C16.875 18.7501 19.476 16.5825 19.9846 11.8864C20.176 10.1189 18.6387 8.75008 16.8608 8.75008H15.8738L14.9943 0.834053ZM4.6875 3.12508C4.16973 3.12508 3.75 3.54482 3.75 4.06258C3.75 4.58035 4.16973 5.00008 4.6875 5.00008H10.3125C10.8303 5.00008 11.25 4.58035 11.25 4.06258C11.25 3.54482 10.8303 3.12508 10.3125 3.12508H4.6875ZM0.9375 7.50008C0.419733 7.50008 0 7.91981 0 8.43758C0 8.95535 0.419733 9.37508 0.9375 9.37508H7.8125C8.33027 9.37508 8.75 8.95535 8.75 8.43758C8.75 7.91981 8.33027 7.50008 7.8125 7.50008H0.9375ZM1.25 12.8126C1.25 12.2948 1.66973 11.8751 2.1875 11.8751H5.3125C5.83027 11.8751 6.25 12.2948 6.25 12.8126C6.25 13.3303 5.83027 13.7501 5.3125 13.7501H2.1875C1.66973 13.7501 1.25 13.3303 1.25 12.8126ZM9.49104 16.8751C9.9826 15.7923 10.4651 14.4493 10.751 12.919C11.0237 11.4593 12.0579 10.6251 12.9031 10.6251H16.8608C17.2766 10.6251 17.6344 10.7874 17.8581 11.0036C18.0653 11.2038 18.148 11.4305 18.1205 11.6846C17.9009 13.7128 17.2354 15.1583 16.6543 16.0772C16.4435 16.4106 16.2429 16.676 16.0773 16.8751H14.8293C15.5022 15.9929 15.9375 14.7153 15.9375 13.4376H15C14.5612 14.9735 13.6602 16.0472 12.297 16.8751H9.49104Z" fill="black"/>
</g>
<defs>
<clipPath id="clip0_3707_19042">
<rect width="20" height="20" fill="white"/>
</clipPath>
</defs>
</svg>
