<svg width="20" height="20" viewBox="0 0 20 20" fill="none" xmlns="http://www.w3.org/2000/svg">
<path fill-rule="evenodd" clip-rule="evenodd" d="M16.875 10C16.875 13.797 13.797 16.875 10 16.875C6.20304 16.875 3.125 13.797 3.125 10C3.125 6.20304 6.20304 3.125 10 3.125C13.797 3.125 16.875 6.20304 16.875 10ZM18.75 10C18.75 14.8325 14.8325 18.75 10 18.75C5.16751 18.75 1.25 14.8325 1.25 10C1.25 5.16751 5.16751 1.25 10 1.25C14.8325 1.25 18.75 5.16751 18.75 10Z" fill="black"/>
<path fill-rule="evenodd" clip-rule="evenodd" d="M10.9375 10.9375L10.9375 9.0625L10.9375 6.875C10.9375 6.35723 10.5178 5.9375 10 5.9375C9.48223 5.9375 9.0625 6.35723 9.0625 6.875L9.0625 9.0625L9.0625 10.9375L9.0625 13.125C9.0625 13.6428 9.48223 14.0625 10 14.0625C10.5178 14.0625 10.9375 13.6428 10.9375 13.125L10.9375 10.9375Z" fill="black"/>
<path fill-rule="evenodd" clip-rule="evenodd" d="M9.65709 11.2808L11.2809 10.3433L13.1753 9.24951C13.6237 8.99063 13.7773 8.41726 13.5185 7.96886C13.2596 7.52046 12.6862 7.36683 12.2378 7.62571L10.3434 8.71946L8.71959 9.65696L6.82516 10.7507C6.37676 11.0096 6.22313 11.583 6.48201 12.0314C6.74089 12.4798 7.31426 12.6334 7.76266 12.3745L9.65709 11.2808Z" fill="black"/>
<path fill-rule="evenodd" clip-rule="evenodd" d="M8.71972 10.3433L10.3435 11.2808L12.238 12.3745C12.6864 12.6334 13.2597 12.4798 13.5186 12.0314C13.7775 11.583 13.6239 11.0096 13.1755 10.7507L11.281 9.65696L9.65722 8.71947L7.76279 7.62572C7.3144 7.36683 6.74103 7.52046 6.48215 7.96886C6.22326 8.41726 6.3769 8.99063 6.82529 9.24951L8.71972 10.3433Z" fill="black"/>
</svg>
