<svg width="20" height="20" viewBox="0 0 20 20" fill="none" xmlns="http://www.w3.org/2000/svg">
<path fill-rule="evenodd" clip-rule="evenodd" d="M10 16.875C13.797 16.875 16.875 13.797 16.875 10C16.875 6.20304 13.797 3.125 10 3.125C6.20304 3.125 3.125 6.20304 3.125 10C3.125 13.797 6.20304 16.875 10 16.875ZM10 18.75C14.8325 18.75 18.75 14.8325 18.75 10C18.75 5.16751 14.8325 1.25 10 1.25C5.16751 1.25 1.25 5.16751 1.25 10C1.25 14.8325 5.16751 18.75 10 18.75ZM11.25 6.875C11.25 7.56535 10.6904 8.125 10 8.125C9.30964 8.125 8.75 7.56535 8.75 6.875C8.75 6.18464 9.30964 5.625 10 5.625C10.6904 5.625 11.25 6.18464 11.25 6.875ZM10.9375 10.625C10.9375 10.1072 10.5178 9.6875 10 9.6875C9.48223 9.6875 9.0625 10.1072 9.0625 10.625V13.75C9.0625 14.2678 9.48223 14.6875 10 14.6875C10.5178 14.6875 10.9375 14.2678 10.9375 13.75V10.625Z" fill="black"/>
</svg>
