<svg width="20" height="20" viewBox="0 0 20 20" fill="none" xmlns="http://www.w3.org/2000/svg">
<path fill-rule="evenodd" clip-rule="evenodd" d="M8.70514 2.23734C8.85034 2.73434 8.56515 3.25493 8.06816 3.40013C5.82523 4.0554 4.05517 5.82546 3.3999 8.06839C3.2547 8.56538 2.73411 8.85057 2.23712 8.70537C1.74012 8.56018 1.45494 8.03958 1.60013 7.54259C2.43484 4.68544 4.68521 2.43507 7.54236 1.60036C8.03935 1.45517 8.55995 1.74035 8.70514 2.23734ZM11.2949 2.23734C11.4401 1.74035 11.9607 1.45517 12.4577 1.60036C16.0929 2.66239 18.75 6.0198 18.75 10.0002C18.75 11.5207 18.3614 12.9531 17.6774 14.2009C17.4285 14.6549 16.8587 14.8212 16.4047 14.5723C15.9507 14.3234 15.7844 13.7536 16.0333 13.2996C16.5696 12.3211 16.875 11.1977 16.875 10.0002C16.875 6.87521 14.7892 4.2349 11.9319 3.40013C11.4349 3.25493 11.1497 2.73434 11.2949 2.23734ZM2.23712 11.2951C2.73411 11.1499 3.2547 11.4351 3.3999 11.9321C4.23467 14.7894 6.87498 16.8752 10 16.8752C11.1975 16.8752 12.3209 16.5699 13.2994 16.0335C13.7534 15.7846 14.3232 15.9509 14.5721 16.4049C14.821 16.8589 14.6547 17.4288 14.2007 17.6777C12.9529 18.3617 11.5204 18.7502 10 18.7502C6.01957 18.7502 2.66217 16.0932 1.60013 12.4579C1.45494 11.9609 1.74012 11.4403 2.23712 11.2951ZM10 6.87524C8.27413 6.87524 6.87502 8.27435 6.87502 10.0002C6.87502 11.2046 7.55601 12.2514 8.55831 12.7738C9.01746 13.0131 9.19568 13.5793 8.95637 14.0384C8.71707 14.4976 8.15086 14.6758 7.69172 14.4365C6.09415 13.6038 5.00002 11.9306 5.00002 10.0002C5.00002 7.23882 7.23859 5.00024 10 5.00024C12.7614 5.00024 15 7.23882 15 10.0002C15 10.518 14.5803 10.9377 14.0625 10.9377C13.5447 10.9377 13.125 10.518 13.125 10.0002C13.125 8.27435 11.7259 6.87524 10 6.87524ZM10.9277 9.86494C10.853 9.35259 10.3771 8.99783 9.86471 9.07256C9.35236 9.14729 8.9976 9.6232 9.07233 10.1355C9.38693 12.2925 10.9381 13.8869 13.0485 14.0596C13.5646 14.1019 14.0172 13.7178 14.0594 13.2017C14.1016 12.6857 13.7175 12.2331 13.2015 12.1909C12.0537 12.0969 11.1301 11.2527 10.9277 9.86494Z" fill="black"/>
</svg>
