<svg width="20" height="20" viewBox="0 0 20 20" fill="none" xmlns="http://www.w3.org/2000/svg">
<g clip-path="url(#clip0_3723_22593)">
<path fill-rule="evenodd" clip-rule="evenodd" d="M7.5 4.15633V5.81066V9.6875V11.6202L5.625 11.1515L4.96308 10.986L4.12262 10.7759L3.86673 10.7119C3.48997 10.6177 3.125 10.9027 3.125 11.291C3.125 11.4752 3.21005 11.6491 3.35546 11.7622L3.56366 11.9241L4.2478 12.4563L4.78516 12.8742L7.46261 14.9567L10.8726 14.7293L15 14.375L15.8338 9.92813L15.9693 9.20551L16.538 6.1723L16.7224 5.18904L16.7333 5.13058C16.8069 4.73795 16.5057 4.375 16.1062 4.375C15.8214 4.375 15.571 4.56383 15.4928 4.83773L15.4764 4.89492L15.2016 5.85674L15 6.5625L14.375 8.75H14.147H13.1327H13.125V8.39286V6.875V6.2999V3.56071V2.58775V2.52835C13.125 2.16751 12.8325 1.875 12.4716 1.875C12.1337 1.875 11.8516 2.13267 11.821 2.4692L11.8156 2.52835L11.7275 3.49729L11.4569 6.47392L11.2731 8.49537L11.25 8.75H10L9.97685 8.63426L9.565 6.57498L9.375 5.625L9.05056 4.00279L8.88738 3.18689L8.86043 3.05218C8.79622 2.73111 8.51431 2.5 8.18689 2.5C7.80753 2.5 7.5 2.80753 7.5 3.18689V3.32426V4.15633ZM4.32148 8.89287L5.625 9.21875V3.18689C5.625 1.77199 6.772 0.625 8.18689 0.625C8.96361 0.625 9.67167 0.973703 10.1458 1.53565C10.5336 0.626857 11.4348 0 12.4716 0C13.868 0 15 1.13198 15 2.52835V2.75647C15.3365 2.59135 15.713 2.5 16.1062 2.5C17.6797 2.5 18.8662 3.92958 18.5762 5.47612L16.8429 14.7205C16.6877 15.5483 15.9995 16.1711 15.1604 16.2431L11.033 16.5975L10.9973 16.6002L7.58733 16.8275C7.12851 16.8581 6.67445 16.719 6.31147 16.4367L2.20432 13.2422C1.60218 12.7739 1.25 12.0538 1.25 11.291C1.25 9.68284 2.76132 8.50283 4.32148 8.89287ZM16.0043 19.3726C16.5207 19.3357 16.9095 18.8872 16.8726 18.3707C16.8357 17.8542 16.3872 17.4655 15.8707 17.5024L7.1207 18.1274C6.60425 18.1643 6.21549 18.6128 6.25238 19.1293C6.28927 19.6457 6.73784 20.0345 7.25429 19.9976L16.0043 19.3726Z" fill="black"/>
</g>
<defs>
<clipPath id="clip0_3723_22593">
<rect width="20" height="20" fill="white"/>
</clipPath>
</defs>
</svg>
