<svg width="20" height="20" viewBox="0 0 20 20" fill="none" xmlns="http://www.w3.org/2000/svg">
<path fill-rule="evenodd" clip-rule="evenodd" d="M10 16.875C13.797 16.875 16.875 13.797 16.875 10C16.875 7.21161 15.215 4.81093 12.8293 3.73231C13.2197 4.59535 13.4375 5.55369 13.4375 6.5625C13.4375 10.3595 10.3595 13.4375 6.5625 13.4375C5.55369 13.4375 4.59535 13.2197 3.73231 12.8293C4.81093 15.215 7.21161 16.875 10 16.875ZM1.30579 10.9935C1.79908 15.3582 5.50344 18.75 10 18.75C14.8325 18.75 18.75 14.8325 18.75 10C18.75 5.50344 15.3582 1.79908 10.9935 1.30579C10.9934 1.30577 10.9932 1.30575 10.993 1.30573C10.9816 1.30443 10.9701 1.30316 10.9586 1.3019C10.6438 1.2676 10.3239 1.25 10 1.25C9.34084 1.25 9.26258 2.30237 9.76821 2.72523C9.8476 2.79163 9.9249 2.86044 10 2.93156C10.062 2.99024 10.1224 3.0505 10.1813 3.11225C10.1862 3.11741 10.1911 3.12257 10.196 3.12774C11.0431 4.02351 11.5625 5.23235 11.5625 6.5625C11.5625 9.32392 9.32392 11.5625 6.5625 11.5625C5.23235 11.5625 4.02351 11.0431 3.12774 10.196C3.12257 10.1911 3.11741 10.1862 3.11225 10.1813C3.0505 10.1224 2.99024 10.062 2.93156 10C2.86044 9.9249 2.79163 9.8476 2.72523 9.76821C2.30237 9.26258 1.25 9.34084 1.25 10C1.25 10.3239 1.2676 10.6438 1.3019 10.9586C1.30316 10.9701 1.30443 10.9816 1.30573 10.993C1.30575 10.9932 1.30577 10.9934 1.30579 10.9935Z" fill="black"/>
</svg>
