<svg width="20" height="20" viewBox="0 0 20 20" fill="none" xmlns="http://www.w3.org/2000/svg">
<path fill-rule="evenodd" clip-rule="evenodd" d="M15.0151 12.5V12.5001C15.5541 12.5044 15.9704 12.3118 16.2674 11.9858C16.5721 11.6512 16.875 11.0343 16.875 10C16.875 6.20304 13.797 3.125 10 3.125C6.20304 3.125 3.125 6.20304 3.125 10C3.125 13.797 6.20304 16.875 10 16.875C10.1589 16.875 10.2957 16.8707 10.4127 16.8639C10.3563 16.5961 10.2775 16.1837 10.2796 15.7503C10.2821 15.2219 10.4027 14.5314 10.8987 13.9002C11.3818 13.2853 12.0487 12.9469 12.7091 12.7593C13.3618 12.5739 14.1292 12.5 15 12.5H15.0151ZM10.5363 17.5124L10.5362 17.5062C10.5364 17.5105 10.5364 17.5125 10.5363 17.5124ZM15 14.375C17.0759 14.3918 18.75 12.8125 18.75 10C18.75 5.16751 14.8325 1.25 10 1.25C5.16751 1.25 1.25 5.16751 1.25 10C1.25 14.8325 5.16751 18.75 10 18.75C12.7384 18.75 12.5143 17.7131 12.2842 16.6489C12.0418 15.5271 11.7927 14.375 15 14.375ZM11.25 6.25C11.25 6.94036 10.6904 7.5 10 7.5C9.30964 7.5 8.75 6.94036 8.75 6.25C8.75 5.55964 9.30964 5 10 5C10.6904 5 11.25 5.55964 11.25 6.25ZM13.75 9.6875C14.4404 9.6875 15 9.12786 15 8.4375C15 7.74714 14.4404 7.1875 13.75 7.1875C13.0596 7.1875 12.5 7.74714 12.5 8.4375C12.5 9.12786 13.0596 9.6875 13.75 9.6875ZM7.8125 8.4375C7.8125 9.12786 7.25286 9.6875 6.5625 9.6875C5.87214 9.6875 5.3125 9.12786 5.3125 8.4375C5.3125 7.74714 5.87214 7.1875 6.5625 7.1875C7.25286 7.1875 7.8125 7.74714 7.8125 8.4375ZM7.1875 13.75C7.87786 13.75 8.4375 13.1904 8.4375 12.5C8.4375 11.8096 7.87786 11.25 7.1875 11.25C6.49714 11.25 5.9375 11.8096 5.9375 12.5C5.9375 13.1904 6.49714 13.75 7.1875 13.75Z" fill="black"/>
</svg>
