<svg width="20" height="20" viewBox="0 0 20 20" fill="none" xmlns="http://www.w3.org/2000/svg">
<path d="M9.99983 13C11.1044 13 11.9998 13.8954 11.9998 15C11.9998 16.1046 11.1044 17 9.99983 17C8.89534 16.9999 7.99983 16.1045 7.99983 15C7.99983 13.8955 8.89534 13.0001 9.99983 13ZM9.99397 8C11.975 7.99871 13.9009 8.65156 15.4735 9.85645C15.9118 10.1924 15.9949 10.8194 15.659 11.2578C15.3231 11.6961 14.696 11.7793 14.2576 11.4434C13.0345 10.5062 11.5358 9.99897 9.99495 10C8.45427 10.0011 6.95691 10.5106 5.73518 11.4492C5.29728 11.7856 4.66933 11.7035 4.33284 11.2656C3.99643 10.8277 4.07862 10.1998 4.51643 9.86328C6.08733 8.6563 8.01293 8.00137 9.99397 8ZM10.0047 3C13.0866 3.00109 16.0819 4.01954 18.5262 5.89648C18.9641 6.23276 19.0468 6.85985 18.7108 7.29785C18.3744 7.73579 17.7464 7.81868 17.3084 7.48242C15.2133 5.87362 12.6453 5.00094 10.0037 5C7.36231 4.99918 4.79424 5.87027 2.69807 7.47754C2.25981 7.81335 1.63171 7.73018 1.29573 7.29199C0.959948 6.85376 1.04318 6.22565 1.48128 5.88965C3.92684 4.01458 6.92304 2.99896 10.0047 3Z" fill="black"/>
</svg>
