<svg width="32" height="32" viewBox="0 0 32 32" fill="none" xmlns="http://www.w3.org/2000/svg">
<path d="M23.7336 25.6L21.3336 14.6667L26.0002 10C28.0002 8 28.6669 5.33333 28.0002 4C26.6669 3.33333 24.0002 4 22.0002 6L17.3336 10.6667L6.40024 8.26667C5.73358 8.13333 5.20024 8.4 4.93358 8.93333L4.53358 9.6C4.26691 10.2667 4.40024 10.9333 4.93358 11.3333L12.0002 16L9.33358 20H5.33358L4.00024 21.3333L8.00024 24L10.6669 28L12.0002 26.6667V22.6667L16.0002 20L20.6669 27.0667C21.0669 27.6 21.7336 27.7333 22.4002 27.4667L23.0669 27.2C23.6002 26.8 23.8669 26.2667 23.7336 25.6Z" stroke="white" stroke-width="3" stroke-linecap="round" stroke-linejoin="round"/>
</svg>
