<svg width="32" height="32" viewBox="0 0 32 32" fill="none" xmlns="http://www.w3.org/2000/svg">
<g clip-path="url(#clip0_3730_22909)">
<path d="M2.66667 18.8573L10.6667 12L18.6667 18.8573" stroke="white" stroke-width="3" stroke-linecap="round" stroke-linejoin="round"/>
<path d="M17.524 28V18.5" stroke="white" stroke-width="3" stroke-linecap="round" stroke-linejoin="round"/>
<path d="M11 24V27.9998" stroke="white" stroke-width="3" stroke-linecap="round" stroke-linejoin="round"/>
<path d="M3.80934 17.877V27.9996" stroke="white" stroke-width="3" stroke-linecap="round" stroke-linejoin="round"/>
<path d="M29.3333 28H2.66667" stroke="white" stroke-width="3" stroke-linecap="round" stroke-linejoin="round"/>
<path d="M25.9867 24V28" stroke="white" stroke-width="3" stroke-linecap="round" stroke-linejoin="round"/>
<path d="M27.4924 14.667H24.5076C23.4909 14.667 22.6667 15.4912 22.6667 16.5079V22.1594C22.6667 23.1761 23.4909 24.0003 24.5076 24.0003H27.4924C28.5091 24.0003 29.3333 23.1761 29.3333 22.1594V16.5079C29.3333 15.4912 28.5091 14.667 27.4924 14.667Z" stroke="white" stroke-width="3" stroke-linecap="round" stroke-linejoin="round"/>
<path d="M22.5 8C23.3284 8 24 7.32843 24 6.5C24 5.67157 23.3284 5 22.5 5C21.6716 5 21 5.67157 21 6.5C21 7.32843 21.6716 8 22.5 8Z" stroke="white" stroke-width="3" stroke-linecap="round" stroke-linejoin="round"/>
</g>
<defs>
<clipPath id="clip0_3730_22909">
<rect width="32" height="32" fill="white"/>
</clipPath>
</defs>
</svg>
