<svg width="32" height="32" viewBox="0 0 32 32" fill="none" xmlns="http://www.w3.org/2000/svg">
<path d="M16.0005 13.6533H6.61379C5.31776 13.6533 4.26712 14.704 4.26712 16V25.3867C4.26712 26.6827 5.31776 27.7333 6.61379 27.7333H16.0005C17.2965 27.7333 18.3471 26.6827 18.3471 25.3867V16C18.3471 14.704 17.2965 13.6533 16.0005 13.6533Z" stroke="white" stroke-width="3" stroke-linecap="round" stroke-linejoin="round"/>
<path d="M22.9462 18.3472L27.0528 14.2406C27.4882 13.7577 27.7291 13.1307 27.7291 12.4806C27.7291 11.8305 27.4882 11.2034 27.0528 10.7206L21.1862 4.94778C20.7033 4.51243 20.0763 4.27148 19.4262 4.27148C18.7761 4.27148 18.149 4.51243 17.6662 4.94778L13.6534 8.96058" stroke="white" stroke-width="3" stroke-linecap="round" stroke-linejoin="round"/>
<path d="M8.96025 23.04H8.97203" stroke="white" stroke-width="3" stroke-linecap="round" stroke-linejoin="round"/>
<path d="M13.6534 18.3467H13.6652" stroke="white" stroke-width="3" stroke-linecap="round" stroke-linejoin="round"/>
<path d="M19.5202 8.95996H19.532" stroke="white" stroke-width="3" stroke-linecap="round" stroke-linejoin="round"/>
<path d="M23.0403 12.4805H23.052" stroke="white" stroke-width="3" stroke-linecap="round" stroke-linejoin="round"/>
</svg>
