<svg width="32" height="32" viewBox="0 0 32 32" fill="none" xmlns="http://www.w3.org/2000/svg">
<path d="M18.2286 5.83301C19.3335 5.83308 20.3935 6.27244 21.1749 7.05371L28.5557 14.4346C29.587 15.4659 30.167 16.8647 30.167 18.3232V20.666C30.167 22.7601 28.6217 24.4931 26.6094 24.7881C25.9919 26.7461 24.1621 28.1659 22 28.166C19.8545 28.1659 18.0365 26.7678 17.4053 24.833H13.2618C12.6306 26.7678 10.8125 28.1659 8.66704 28.166C6.51157 28.166 4.68571 26.7553 4.06255 24.8066C1.56434 24.5359 -0.171688 22.0839 0.497116 19.5879L3.35551 8.9209C3.84388 7.09974 5.49435 5.83301 7.37993 5.83301H18.2286ZM8.66704 21.5C7.65462 21.5 6.83421 22.3206 6.83403 23.333C6.83403 24.3455 7.65452 25.166 8.66704 25.166C9.67939 25.1658 10.5 24.3454 10.5 23.333C10.4999 22.3208 9.67928 21.5002 8.66704 21.5ZM22 21.5C20.9877 21.5001 20.1672 22.3207 20.167 23.333C20.167 24.3455 20.9876 25.1659 22 25.166C23.0124 25.1659 23.834 24.3454 23.834 23.333C23.8339 22.3207 23.0123 21.5002 22 21.5ZM7.37993 8.83301C6.85217 8.83301 6.38992 9.18766 6.25298 9.69727L3.39458 20.3643C3.23501 20.9598 3.56504 21.5454 4.09868 21.7529C4.75354 19.8598 6.55124 18.5 8.66704 18.5C10.8124 18.5002 12.6305 19.8984 13.2618 21.833H17.4053C18.0366 19.8984 19.8547 18.5001 22 18.5C24.0942 18.5001 25.8768 19.8323 26.5479 21.6953C26.9157 21.499 27.167 21.112 27.167 20.666V18.3232C27.167 17.6603 26.9033 17.0244 26.4346 16.5557L19.0538 9.1748C18.835 8.95614 18.5378 8.83308 18.2286 8.83301H7.37993ZM15.3331 14L18.667 14.667L13.3331 20L14 16.667L10.667 16L16 10.667L15.3331 14Z" fill="white"/>
</svg>
