<svg width="32" height="32" viewBox="0 0 32 32" fill="none" xmlns="http://www.w3.org/2000/svg">
<path d="M8.3947 15.1416L3.73337 28.2669L16.8587 23.6179" stroke="white" stroke-width="3" stroke-linecap="round" stroke-linejoin="round"/>
<path d="M6.18713 4.95996H6.19989" stroke="white" stroke-width="3" stroke-linecap="round" stroke-linejoin="round"/>
<path d="M28.2671 11.0938H28.2799" stroke="white" stroke-width="3" stroke-linecap="round" stroke-linejoin="round"/>
<path d="M19.6803 3.7334H19.693" stroke="white" stroke-width="3" stroke-linecap="round" stroke-linejoin="round"/>
<path d="M28.2671 25.8135H28.2799" stroke="white" stroke-width="3" stroke-linecap="round" stroke-linejoin="round"/>
<path d="M28.2667 3.7334L25.519 4.6534C24.7368 4.91393 24.0694 5.43802 23.6309 6.1361C23.1924 6.83418 23.0099 7.66289 23.1147 8.4806C23.2374 9.53553 22.4155 10.4801 21.336 10.4801H20.8699C19.815 10.4801 18.9072 11.2161 18.711 12.2465L18.4534 13.5467" stroke="white" stroke-width="3" stroke-linecap="round" stroke-linejoin="round"/>
<path d="M28.2667 17.2269L27.2608 16.8221C26.2059 16.405 25.0283 17.0674 24.832 18.1837C24.6971 19.0423 23.9488 19.6802 23.0779 19.6802H22.1334" stroke="white" stroke-width="3" stroke-linecap="round" stroke-linejoin="round"/>
<path d="M14.7736 3.7334L15.1784 4.73927C15.5955 5.7942 14.9331 6.9718 13.8168 7.16807C12.9581 7.29073 12.3203 8.05127 12.3203 8.9222V9.86673" stroke="white" stroke-width="3" stroke-linecap="round" stroke-linejoin="round"/>
<path d="M14.7734 17.2261C17.1408 19.5935 18.2448 22.3412 17.2267 23.3594C16.2086 24.3775 13.4608 23.2735 11.0934 20.906C8.72589 18.5386 7.62189 15.7909 8.64003 14.7727C9.65816 13.7546 12.4059 14.8586 14.7734 17.2261Z" stroke="white" stroke-width="3" stroke-linecap="round" stroke-linejoin="round"/>
</svg>
