<svg width="32" height="32" viewBox="0 0 32 32" fill="none" xmlns="http://www.w3.org/2000/svg">
<path d="M24 2.66699H8.00004C7.2928 2.66699 6.61452 2.94794 6.11442 3.44804C5.61433 3.94814 5.33337 4.62641 5.33337 5.33366V26.667C5.33337 27.3742 5.61433 28.0525 6.11442 28.5526C6.61452 29.0527 7.2928 29.3337 8.00004 29.3337H24C24.7073 29.3337 25.3856 29.0527 25.8857 28.5526C26.3858 28.0525 26.6667 27.3742 26.6667 26.667V5.33366C26.6667 4.62641 26.3858 3.94814 25.8857 3.44804C25.3856 2.94794 24.7073 2.66699 24 2.66699Z" stroke="white" stroke-width="3" stroke-linecap="round" stroke-linejoin="round"/>
<path d="M12.0002 21.333L12.4642 21.013C14.4176 19.6623 17.5842 19.6623 19.5362 21.013L20.0002 21.333" stroke="white" stroke-width="3" stroke-linecap="round" stroke-linejoin="round"/>
<path d="M10.6671 9.33301H10.6796" stroke="white" stroke-width="3" stroke-linecap="round" stroke-linejoin="round"/>
<path d="M21.3334 9.33301H21.3459" stroke="white" stroke-width="3" stroke-linecap="round" stroke-linejoin="round"/>
<path d="M16.0002 9.33301H16.0127" stroke="white" stroke-width="3" stroke-linecap="round" stroke-linejoin="round"/>
<path d="M16.0002 14.667H16.0127" stroke="white" stroke-width="3" stroke-linecap="round" stroke-linejoin="round"/>
<path d="M21.3334 14.667H21.3459" stroke="white" stroke-width="3" stroke-linecap="round" stroke-linejoin="round"/>
<path d="M10.6671 14.667H10.6796" stroke="white" stroke-width="3" stroke-linecap="round" stroke-linejoin="round"/>
<path d="M13.3334 29.3337V20.667M18.6667 20.667V29.3337" stroke="white" stroke-width="3" stroke-linecap="round" stroke-linejoin="round"/>
</svg>
