<svg width="32" height="32" viewBox="0 0 32 32" fill="none" xmlns="http://www.w3.org/2000/svg">
    <g clip-path="url(#clip0_4098_10899)">
        <path
            d="M15.6667 25.333H6.66667C5.95942 25.333 5.28115 25.0521 4.78105 24.552C4.28095 24.0519 4 23.3736 4 22.6663V10.6663C4 9.9591 4.28095 9.28082 4.78105 8.78072C5.28115 8.28063 5.95942 7.99967 6.66667 7.99967H10.3905C10.4781 7.99968 10.5648 7.98243 10.6456 7.94893C10.7265 7.91542 10.8 7.86632 10.8619 7.80441L12.5523 6.11406C12.7999 5.86644 13.0939 5.67001 13.4174 5.536C13.7409 5.40198 14.0877 5.33301 14.4379 5.33301H17.5621C17.9123 5.33301 18.2591 5.40198 18.5826 5.536C18.9061 5.67001 19.2001 5.86644 19.4477 6.11406L21.1381 7.80441C21.2 7.86632 21.2735 7.91542 21.3544 7.94893C21.4352 7.98243 21.5219 7.99968 21.6095 7.99967H25.3333C26.0406 7.99967 26.7189 8.28063 27.219 8.78072C27.719 9.28082 28 9.9591 28 10.6663V15.9997"
            stroke="white" stroke-width="3" stroke-linecap="round" stroke-linejoin="round" />
        <path
            d="M10.6667 16C10.6688 17.1796 11.0629 18.3251 11.7869 19.2564C12.511 20.1876 13.524 20.8519 14.6667 21.1448"
            stroke="white" stroke-width="3" stroke-linecap="round" stroke-linejoin="round" />
        <path
            d="M21.1448 14.667C20.8225 13.4106 20.0524 12.3151 18.9794 11.5864C17.9063 10.8576 16.6041 10.5458 15.3173 10.7096C14.0306 10.8733 12.8479 11.5013 11.9915 12.4756C11.1352 13.4498 10.664 14.7032 10.6667 16.0003"
            stroke="white" stroke-width="3" stroke-linecap="round" stroke-linejoin="round" />
        <path
            d="M21.8539 24.1457C21.9377 24.2298 22.016 24.3189 22.0883 24.4123C22.2851 24.6666 22.4378 24.9533 22.539 25.2604L22.9868 26.6371C23.0242 26.7432 23.0937 26.8351 23.1856 26.9001C23.2776 26.9651 23.3874 27 23.5 27C23.6126 27 23.7224 26.9651 23.8144 26.9001C23.8964 26.8421 23.9605 26.7627 24 26.6709C24.0048 26.6598 24.0092 26.6486 24.0132 26.6371L24.461 25.2604C24.6003 24.8418 24.8353 24.4615 25.1474 24.1496C25.4595 23.8377 25.8402 23.6029 26.259 23.4637L27.6368 23.0163C27.743 22.9788 27.835 22.9094 27.9 22.8176C27.9651 22.7257 28 22.616 28 22.5034C28 22.3909 27.9651 22.2812 27.9 22.1893C27.835 22.0975 27.743 22.028 27.6368 21.9906L27.6093 21.9837L26.2315 21.5363C25.8126 21.3971 25.432 21.1623 25.1198 20.8504C24.8077 20.5385 24.5727 20.1582 24.4335 19.7396L23.9857 18.3629C23.9482 18.2568 23.8787 18.1649 23.7868 18.0999C23.6949 18.0349 23.5851 18 23.4724 18C23.3598 18 23.25 18.0349 23.1581 18.0999C23.0662 18.1649 22.9967 18.2568 22.9592 18.3629L22.5114 19.7396L22.5 19.7737C22.3623 20.1759 22.1357 20.5422 21.837 20.8454C21.5299 21.1571 21.1547 21.3935 20.741 21.5363L19.3632 21.9837C19.257 22.0212 19.165 22.0906 19.1 22.1824C19.0349 22.2743 19 22.384 19 22.4966C19 22.6091 19.0349 22.7188 19.1 22.8107C19.165 22.9025 19.257 22.972 19.3632 23.0094L20.741 23.4568C21.1606 23.5967 21.5417 23.8326 21.8539 24.1457ZM29.0175 27.9646L29.7829 28.2132L29.7982 28.217C29.8572 28.2378 29.9083 28.2764 29.9445 28.3274C29.9806 28.3784 30 28.4394 30 28.5019C30 28.5644 29.9806 28.6254 29.9445 28.6764C29.9083 28.7275 29.8572 28.766 29.7982 28.7868L29.0328 29.0354C28.8001 29.1127 28.5886 29.2432 28.4152 29.4164C28.2418 29.5897 28.1113 29.801 28.0339 30.0335L27.7851 30.7984C27.7643 30.8573 27.7257 30.9084 27.6746 30.9445C27.6236 30.9806 27.5626 31 27.5 31C27.4374 31 27.3764 30.9806 27.3254 30.9445C27.2743 30.9084 27.2357 30.8573 27.2149 30.7984L26.9661 30.0335C26.8893 29.8003 26.7589 29.5882 26.5855 29.4143C26.412 29.2403 26.2003 29.1093 25.9672 29.0316L25.2018 28.783C25.1428 28.7622 25.0917 28.7236 25.0555 28.6726C25.0194 28.6216 25 28.5606 25 28.4981C25 28.4356 25.0194 28.3746 25.0555 28.3236C25.0917 28.2725 25.1428 28.234 25.2018 28.2132L25.9672 27.9646C26.1971 27.8853 26.4055 27.7539 26.5761 27.5808C26.7467 27.4076 26.875 27.1974 26.9508 26.9665L27.1996 26.2016C27.2204 26.1427 27.259 26.0916 27.31 26.0555C27.3611 26.0194 27.4221 26 27.4847 26C27.5473 26 27.6083 26.0194 27.6593 26.0555C27.7104 26.0916 27.749 26.1427 27.7698 26.2016L28.0186 26.9665C28.0959 27.199 28.2265 27.4103 28.3999 27.5836C28.5733 27.7568 28.7848 27.8873 29.0175 27.9646Z"
            fill="white" />
    </g>
    <defs>
        <clipPath id="clip0_4098_10899">
            <rect width="32" height="32" fill="white" />
        </clipPath>
    </defs>
</svg>
