<svg width="32" height="32" viewBox="0 0 32 32" fill="none" xmlns="http://www.w3.org/2000/svg">
<path d="M4.6366 5.56445C8.57287 1.62881 16.8961 0.356763 22.7811 5.09668L23.9393 3.93945C24.5251 3.35369 25.4746 3.35374 26.0604 3.93945C26.6462 4.52524 26.6462 5.47476 26.0604 6.06055L24.9052 7.21484C29.6674 13.0792 28.5603 21.2391 24.4354 25.3643L24.2264 25.5518C22.1047 27.2718 17.2794 25.8539 11.579 20.541L7.06042 25.0605C6.54217 25.5792 6.54219 26.4198 7.06042 26.9385C7.57905 27.4571 8.42053 27.4578 8.93933 26.9395L9.43933 26.4395C10.0251 25.8537 10.9756 25.8537 11.5614 26.4395C12.1465 27.0252 12.1469 27.975 11.5614 28.5605L11.0614 29.0605C9.37106 30.7509 6.62967 30.7499 4.93933 29.0596C3.24936 27.3692 3.24906 24.6287 4.93933 22.9385L9.45886 18.4189C3.96496 12.5237 2.63627 7.56478 4.6366 5.56445ZM21.7782 8.22168C17.1647 3.60834 9.95037 4.56518 6.81042 7.63574C6.76922 7.74136 6.59197 8.32338 7.18542 9.86035C7.9209 11.765 9.62022 14.3772 12.6219 17.3789C15.6235 20.3804 18.2349 22.08 20.1395 22.8154C21.6755 23.4085 22.258 23.2298 22.3641 23.1885C25.6049 19.8821 26.42 12.8637 21.7782 8.22168Z" fill="white"/>
</svg>
