<svg width="32" height="32" viewBox="0 0 32 32" fill="none" xmlns="http://www.w3.org/2000/svg">
<path d="M19.8664 2.5C22.9829 2.5 25.5735 4.8996 25.8127 8.00684L26.4602 16.4111C26.6275 18.586 25.6093 20.5604 23.969 21.7295L26.6848 27.3467C27.0453 28.0924 26.733 28.9899 25.9875 29.3506C25.2418 29.7111 24.3443 29.399 23.9836 28.6533L23.1037 26.834H8.89767L8.01779 28.6533C7.65714 29.399 6.75964 29.7111 6.01389 29.3506C5.26849 28.9898 4.95616 28.0923 5.31662 27.3467L8.03146 21.7295C6.39161 20.5604 5.37397 18.5856 5.54123 16.4111L6.18771 8.00684C6.42684 4.89962 9.01857 2.50009 12.135 2.5H19.8664ZM21.1535 22.7988C20.9433 22.8212 20.7294 22.833 20.5129 22.833H11.4885C11.2716 22.833 11.0575 22.8213 10.8469 22.7988L10.3479 23.834H21.6535L21.1535 22.7988ZM8.53244 16.6416C8.40001 18.3632 9.76185 19.8329 11.4885 19.833H20.5129C22.2396 19.833 23.6014 18.3632 23.469 16.6416L23.1252 12.167H8.87619L8.53244 16.6416ZM11.3342 14.667C12.4387 14.667 13.3341 15.5625 13.3342 16.667C13.3342 17.7716 12.4388 18.667 11.3342 18.667C10.2297 18.667 9.3342 17.7715 9.3342 16.667C9.33426 15.5625 10.2297 14.667 11.3342 14.667ZM20.6672 14.667C21.7717 14.667 22.6671 15.5625 22.6672 16.667C22.6672 17.7716 21.7718 18.667 20.6672 18.667C19.5627 18.6669 18.6672 17.7715 18.6672 16.667C18.6673 15.5625 19.5628 14.6671 20.6672 14.667ZM12.135 5.5C10.5862 5.50009 9.29782 6.69308 9.17892 8.2373L9.10764 9.16699H22.8938L22.8225 8.2373C22.7036 6.69304 21.4153 5.5 19.8664 5.5H12.135Z" fill="white"/>
</svg>
